<svg xmlns="http://www.w3.org/2000/svg" width="32.835" height="42.386" viewBox="0 0 32.835 42.386">
  <g id="Group_5592" data-name="Group 5592" transform="translate(-319.454 -646.796)">
    <g id="Group_5583" data-name="Group 5583" transform="translate(324.004 646.796)">
      <path id="Path_6301" data-name="Path 6301" d="M347.494,667.732c-.391-2.306-.786-4.611-1.167-6.918a.744.744,0,0,0-.406-.588,5.541,5.541,0,0,1-2.337-3.036,8.424,8.424,0,0,1-.256-5.7,4.99,4.99,0,0,1,.783-1.474,2.4,2.4,0,0,1,3.5-.48,5.821,5.821,0,0,1,2.064,2.873,8.353,8.353,0,0,1,.177,5.916,5.2,5.2,0,0,1-.81,1.356.828.828,0,0,0-.191.733q1.163,6.8,2.307,13.61a2.641,2.641,0,0,1,.036.722,1.208,1.208,0,0,1-1.082,1.062,1.338,1.338,0,0,1-1.367-.848,3.756,3.756,0,0,1-.116-.533q-.569-3.346-1.135-6.693Z" transform="translate(-342.943 -648.561)" fill="#eb9c22"/>
      <path id="Path_6302" data-name="Path 6302" d="M418.668,657.551c-.307-.066-.556-.118-.8-.174a.926.926,0,0,1-.824-1.282q.905-4.209,1.815-8.417c.026-.119.046-.239.078-.356.111-.406.377-.589.728-.507s.5.344.41.77c-.349,1.633-.705,3.266-1.054,4.9a.631.631,0,0,0,.449.854c.5.151.772-.027.9-.6.349-1.6.691-3.207,1.041-4.809.105-.483.4-.684.807-.541s.446.434.363.808q-.526,2.38-1.03,4.765c-.106.5.04.794.427.916.48.151.765,0,.874-.5.353-1.6.694-3.206,1.045-4.808.035-.159.068-.372.179-.45a.936.936,0,0,1,.631-.2c.168.035.338.275.414.462a1.009,1.009,0,0,1-.041.531q-.9,4.187-1.8,8.373c-.211.976-.488,1.151-1.469.941l-.578-.125-.134.62q-1.5,6.947-3,13.893a2.585,2.585,0,0,1-.271.765,1.272,1.272,0,0,1-1.478.505,1.3,1.3,0,0,1-.869-1.474c.293-1.412.6-2.821.908-4.232l2.181-10.109Z" transform="translate(-401.399 -646.796)" fill="#eb9c22"/>
    </g>
    <g id="Group_5584" data-name="Group 5584" transform="translate(324.004 647.008)">
      <path id="Path_6303" data-name="Path 6303" d="M347.494,668.826c-.391-2.306-.786-4.611-1.167-6.918a.744.744,0,0,0-.406-.588,5.542,5.542,0,0,1-2.337-3.036,8.424,8.424,0,0,1-.256-5.7,4.989,4.989,0,0,1,.783-1.475,2.4,2.4,0,0,1,3.5-.479,5.82,5.82,0,0,1,2.064,2.873,8.352,8.352,0,0,1,.177,5.916,5.2,5.2,0,0,1-.81,1.356.828.828,0,0,0-.191.733q1.163,6.8,2.307,13.61a2.643,2.643,0,0,1,.036.722,1.209,1.209,0,0,1-1.082,1.062,1.339,1.339,0,0,1-1.367-.848,3.747,3.747,0,0,1-.116-.533q-.569-3.346-1.135-6.693Z" transform="translate(-342.943 -649.655)" fill="#a59583"/>
      <path id="Path_6304" data-name="Path 6304" d="M418.668,658.645c-.307-.066-.556-.118-.8-.174a.926.926,0,0,1-.824-1.282q.905-4.209,1.815-8.417c.026-.119.046-.239.078-.356.111-.406.377-.589.728-.507s.5.344.41.77c-.349,1.633-.705,3.266-1.054,4.9a.631.631,0,0,0,.449.854c.5.151.772-.027.9-.6.349-1.6.691-3.206,1.041-4.809.105-.483.4-.684.807-.542s.446.434.363.808q-.526,2.38-1.03,4.765c-.106.5.04.794.427.916.48.151.765,0,.874-.5.353-1.6.694-3.206,1.045-4.808.035-.159.068-.372.179-.449a.937.937,0,0,1,.631-.2c.168.036.338.275.414.462a1.01,1.01,0,0,1-.041.531q-.9,4.187-1.8,8.373c-.211.975-.488,1.151-1.469.94l-.578-.125-.134.62q-1.5,6.947-3,13.893a2.584,2.584,0,0,1-.271.765,1.272,1.272,0,0,1-1.478.505,1.3,1.3,0,0,1-.869-1.474c.293-1.413.6-2.821.908-4.232l2.181-10.109Z" transform="translate(-401.399 -647.89)" fill="#a59583"/>
    </g>
    <g id="Group_5588" data-name="Group 5588" transform="translate(319.454 660.167)">
      <g id="Group_5585" data-name="Group 5585" transform="translate(0 0)">
        <path id="Path_6305" data-name="Path 6305" d="M335.884,747.91a3.836,3.836,0,0,1-2.835-1.631,1.73,1.73,0,0,0-1.155-.728,1.513,1.513,0,0,0-1.037.707A3.549,3.549,0,0,1,328,747.875a3.671,3.671,0,0,1-1.114-.182,3.367,3.367,0,0,1-2.4-3.526c.012-1,.009-2.021.006-3.009q0-.646,0-1.292c-.145-4.016.165-9.184,3.862-13.577a14.987,14.987,0,0,1,25.19,3.282,20.891,20.891,0,0,1,1.8,8.966c.034,2.1.014,3.952-.061,5.669-.1,2.357-1.38,3.2-2.434,3.5a3.911,3.911,0,0,1-1.049.151,3.7,3.7,0,0,1-2.9-1.556c-.285-.352-.7-.772-1.068-.772-.317,0-.762.312-1.252.878a3.212,3.212,0,0,1-5.472-.047,1.891,1.891,0,0,0-1.208-.784,1.808,1.808,0,0,0-1.151.717A3.871,3.871,0,0,1,335.884,747.91Z" transform="translate(-323.488 -719.864)" fill="#f7ede2"/>
        <path id="Path_6306" data-name="Path 6306" d="M335.865,717.769a14.065,14.065,0,0,1,12.763,8.187,20.279,20.279,0,0,1,1.709,8.566c.03,1.87.021,3.743-.06,5.611a2.465,2.465,0,0,1-1.727,2.607,2.916,2.916,0,0,1-.788.115,2.742,2.742,0,0,1-2.153-1.2,2.466,2.466,0,0,0-1.82-1.13,2.816,2.816,0,0,0-1.984,1.212,2.276,2.276,0,0,1-4-.039,2.648,2.648,0,0,0-1.947-1.126,2.581,2.581,0,0,0-1.877,1.044,3.039,3.039,0,0,1-2.129,1.293,2.953,2.953,0,0,1-2.1-1.293,2.586,2.586,0,0,0-1.89-1.065,2.326,2.326,0,0,0-1.81,1.093,2.616,2.616,0,0,1-2.089,1.231,2.7,2.7,0,0,1-.82-.136,2.422,2.422,0,0,1-1.727-2.592c.016-1.443,0-2.886,0-4.329-.171-4.693.455-9.158,3.635-12.936a14.039,14.039,0,0,1,10.811-5.113m-6.461,10.36c.775,0,1.081-.713,1.079-1.461,0-.724-.136-1.531-1.025-1.535h-.005c-.846,0-.8.83-.909,1.544.22.467-.082,1.409.8,1.451h.062m12.773-.033c.888,0,.876-.853.9-1.6-.168-.464.3-1.3-.77-1.356-.035,0-.069,0-.1,0-.955,0-.933.758-.969,1.387-.04.687.048,1.551.919,1.567h.026m-10.809,6.861a2.792,2.792,0,0,1-1.819-1.023.685.685,0,0,0-.441-.255.408.408,0,0,0-.25.095,4.444,4.444,0,0,0,2.189,2.879,1.209,1.209,0,0,0,.312.043c.7,0,1.048-.716,1.485-1.125a1.152,1.152,0,0,1,.758-.387c.355,0,.637.294.936.652a1.871,1.871,0,0,0,1.33.819,1.505,1.505,0,0,0,1.151-.713,1.412,1.412,0,0,1,1.062-.689,1.9,1.9,0,0,1,1.241.75c.257.271.552.742.936.742a.6.6,0,0,0,.368-.143c.949-.73,2.259-1.246,2.264-2.759a.691.691,0,0,0-.367-.12c-.3,0-.494.256-.663.409a2.522,2.522,0,0,1-1.582.819,1.818,1.818,0,0,1-1.4-.883,1,1,0,0,0-.774-.453,1.1,1.1,0,0,0-.83.485,2.024,2.024,0,0,1-1.47.943,1.89,1.89,0,0,1-1.423-.948,1.049,1.049,0,0,0-.793-.5.849.849,0,0,0-.66.388,2.037,2.037,0,0,1-1.559.976m4.5-19.125v0a15.737,15.737,0,0,0-6.6,1.436,16.256,16.256,0,0,0-5.7,4.366c-3.9,4.639-4.24,10.031-4.09,14.218q0,.641,0,1.282c0,.982.005,2-.006,2.99a4.322,4.322,0,0,0,3.075,4.46,4.635,4.635,0,0,0,1.408.228,4.475,4.475,0,0,0,3.635-2,1.536,1.536,0,0,1,.281-.3,1.739,1.739,0,0,1,.4.366,4.726,4.726,0,0,0,3.569,1.968,4.811,4.811,0,0,0,3.581-1.948,1.748,1.748,0,0,1,.425-.374,1.87,1.87,0,0,1,.47.427,4.16,4.16,0,0,0,6.942.055,3.085,3.085,0,0,1,.5-.483,2.581,2.581,0,0,1,.335.353,4.618,4.618,0,0,0,3.657,1.914,4.871,4.871,0,0,0,1.31-.187,4.411,4.411,0,0,0,3.141-4.388c.075-1.736.1-3.609.062-5.726a21.8,21.8,0,0,0-1.9-9.366,16,16,0,0,0-14.512-9.292Z" transform="translate(-319.454 -715.832)" fill="#a59583"/>
      </g>
      <g id="Group_5586" data-name="Group 5586" transform="translate(21.189 8.729)">
        <path id="Path_6307" data-name="Path 6307" d="M431.568,765.934a1.119,1.119,0,0,1-.835-.346,2.017,2.017,0,0,1-.369-1.529l.006-.114c.03-.578.08-1.546,1.253-1.546l.117,0c1.043.054,1.02.788,1.007,1.182a1.175,1.175,0,0,0,.021.365.284.284,0,0,1,.017.107l0,.084c-.019.714-.047,1.794-1.185,1.794Z" transform="translate(-430.066 -762.109)" fill="#a59583"/>
        <path id="Path_6308" data-name="Path 6308" d="M430.414,761.48c.033,0,.067,0,.1,0,1.073.056.6.891.77,1.356-.021.742-.009,1.6-.9,1.6h-.026c-.871-.016-.959-.88-.919-1.567.036-.629.014-1.387.969-1.387m0-.581c-1.449,0-1.515,1.277-1.543,1.822l-.006.112a2.277,2.277,0,0,0,.446,1.743,1.407,1.407,0,0,0,1.043.439h.037c1.421,0,1.458-1.4,1.475-2.077l0-.083a.58.58,0,0,0-.034-.214,1.514,1.514,0,0,1,0-.257,1.238,1.238,0,0,0-1.283-1.481q-.069,0-.132,0Z" transform="translate(-428.857 -760.899)" fill="#a59583"/>
      </g>
      <g id="Group_5587" data-name="Group 5587" transform="translate(8.508 8.72)">
        <path id="Path_6309" data-name="Path 6309" d="M366.033,765.932l-.076,0c-.86-.04-.928-.756-.97-1.184a1.521,1.521,0,0,0-.079-.432.289.289,0,0,1-.025-.167c.015-.1.027-.2.039-.3.073-.629.174-1.49,1.158-1.49.875,0,1.317.617,1.321,1.824a1.946,1.946,0,0,1-.475,1.4,1.232,1.232,0,0,1-.894.356Z" transform="translate(-364.591 -762.065)" fill="#a59583"/>
        <path id="Path_6310" data-name="Path 6310" d="M364.872,761.436h.005c.889,0,1.023.811,1.025,1.535,0,.749-.3,1.461-1.079,1.461h-.062c-.881-.042-.579-.984-.8-1.451.107-.714.063-1.544.909-1.544m0-.581c-1.242,0-1.375,1.136-1.446,1.747-.011.1-.023.2-.037.292a.58.58,0,0,0,.049.334,1.644,1.644,0,0,1,.052.336c.04.417.134,1.395,1.245,1.447l.089,0a1.517,1.517,0,0,0,1.1-.442,2.23,2.23,0,0,0,.559-1.6c-.006-1.742-.875-2.111-1.6-2.114Z" transform="translate(-363.382 -760.855)" fill="#a59583"/>
      </g>
    </g>
  </g>
</svg>

