<?xml version="1.0" encoding="utf-8"?>
<!-- Generator: Adobe Illustrator 25.0.0, SVG Export Plug-In . SVG Version: 6.00 Build 0)  -->
<svg version="1.1" id="花椰菜" xmlns="http://www.w3.org/2000/svg" xmlns:xlink="http://www.w3.org/1999/xlink" x="0px" y="0px"
	 viewBox="0 0 254 211" style="enable-background:new 0 0 254 211;" xml:space="preserve">
<style type="text/css">
	.st0{fill:#82AC40;}
	.st1{fill:#9BCA3F;}
	.st2{fill:#59873E;}
	.st3{fill:#639144;}
	.st4{fill:#4C7F2E;}
	.st5{fill:#CEE97E;}
</style>
<g>
	<g>
		<path class="st0" d="M145.2,145c-0.2-0.1-0.2-0.3-0.2-0.4c-0.7-3.9-1.9-7.8-2.4-11.8c-0.4-3.7-1-7.3-1-11c0-0.8-0.1-1.6-0.2-2.4
			c0-0.2-0.2-0.5,0.1-0.6c1,4.5,2.3,9.1,2.8,13.7c0.4,3.6,0.8,7.3,0.7,10.9C145,143.9,145.1,144.5,145.2,145z"/>
		<path class="st0" d="M71.5,105.4c-0.3-1.6-0.6-5.8-0.7-6.2c0.8,0.1,1.5,1.4,1.9,1.9c3.5,3.2,7.3,6.1,10.9,9.2
			c2.3,2,4.4,4.3,6.5,6.6c2.2,2.5,4.2,5.2,6,7.9c1,1.6,2,3.2,3,4.8c1.3,2,2.5,4.1,3.7,6.2c0.8,1.4,1.5,2.9,2.3,4.4
			c0.8,1.6,1.6,3.1,2.3,4.7c1,2.3,1.9,4.7,2.5,7.2c0.4,1.4,0.6,2.7,0.7,4.2c0,0.2,0.1,0.4,0,0.5c-0.2,0.2-0.4-0.1-0.5-0.2
			c-1.3-1.6-2.8-3-4.1-4.5c-1.9-2-3.8-4.1-5.8-6c-1.3-1.3-2.5-2.7-3.8-3.9c-1.7-1.6-3.3-3.3-5-4.8c-2.1-2-4.3-4-6.5-5.8
			c-1.9-1.6-3.7-3.2-5.7-4.6c-0.2-0.1-0.5-0.3-0.5-0.5c-1.1-3.7-2-7.4-2.5-11.2c-0.3-1.9-0.4-3.9-1.4-5.6c-0.5-0.9-0.9-1.9-1.2-2.8
			C73.2,106.3,71.9,105.6,71.5,105.4z"/>
		<path class="st0" d="M67.9,86c0.9-1.4,1.3-3,1.7-4.6c0-0.2,0.2-0.4,0.3-0.6c1.5,0.1,2.9-0.3,4.3-0.5c0.4-0.1,0.5-0.8,0.9-0.9
			c0.8,2.8,2.1,6,4.5,7.8c1.4,1.1,2.5,2.7,3.6,4.1c0.8,1,1.6,2,2.4,3c0.6,0.7,1,1.7,1.7,2.4c0.3,0.3,0,0.6-0.1,0.8
			c-0.2,0.3-0.5,0.5-0.9,0.4c-0.4-0.2-0.9-0.3-1.3-0.6c-2.8-1.6-5.6-3-8.2-4.7c-2.8-1.8-5.4-3.8-7.8-6.2C68.5,86,68.3,85.9,67.9,86z
			"/>
		<path class="st0" d="M104.1,76.3c2,0.7,3.9,1.4,5.9,2.1c-0.4,2.5-1.1,5-1.9,7.5c-0.1,0.5-0.3,0.9-0.4,1.4
			c-0.1,0.7-0.5,0.8-1.1,0.9c-0.6,0-0.8-0.4-0.9-0.8c-0.4-2.1-0.7-4.2-1.1-6.2C104.3,79.4,104.4,77.8,104.1,76.3z"/>
		<path class="st1" d="M146.2,148c0.6,1.5,1.2,3,1.9,4.6c0.4,0.9,0.8,1.8,1.3,2.7c0.4,0.8-0.6,1.9-1.1,2.5c-1.2,1.7-2,2.6-3.7,3.8
			c-2.5,1.8-5.1,3.3-7.8,4.7c-2.5,1.3-5.1,2.6-7.7,3.6c-1.4,0.5-2.8,1.1-4.2,1.7c-1.7,0.7-3.4,1.2-5.1,1.7c-2.3,0.7-4.7,1.5-7.1,1.8
			c-1.4,0.2-2.7,0.3-4.1,0c-0.9-0.2-1.5-0.5-1.8-1.5c-1-2.9-2.4-5.6-3.8-8.3c-0.4-0.8-1-1.6-1.4-2.4c0-0.1-0.1-0.2-0.2-0.3l0,0
			c0-0.1,0-0.1,0-0.2c-2.2-3.5-4.7-6.9-7.3-10.2c-2.3-2.9-5-5.5-7.6-8.2h-0.2c-4.3-4.1-8.9-7.7-13.8-10.8c-3.1-1.9-6.2-3.8-9.5-5.5
			c0.2-0.7,3.9-8.5,4.3-8.6c1.2,0.2,2,0.4,2.8,0.3c1.9,1.9,3.7,3.9,6,5.4c0.8,0.5,1.5,1.2,2.5,1.4c0.1,0.3,0.3,0.4,0.5,0.5
			c2.1,1.3,3.9,3,5.7,4.6c2.2,1.9,4.3,3.9,6.5,5.8c1.7,1.6,3.3,3.3,5,4.8c1.4,1.2,2.5,2.7,3.8,3.9c2,1.9,3.9,4,5.8,6
			c1.4,1.5,2.8,2.9,4.1,4.5c0.1,0.1,0.2,0.4,0.5,0.2c0.2-0.1,0.1-0.3,0-0.5c0-1.4-0.3-2.8-0.7-4.2c-0.6-2.5-1.5-4.8-2.5-7.2
			c-0.7-1.6-1.5-3.2-2.3-4.7c-0.7-1.5-1.4-3-2.3-4.4c-1.2-2.1-2.4-4.2-3.7-6.2c-1-1.6-2-3.2-3-4.8c-1.8-2.8-3.9-5.4-6-7.9
			c-2-2.3-4.1-4.6-6.5-6.6c-3.6-3.1-7.3-6-10.9-9.2c-0.5-0.5-0.9-1.1-1.7-1.2c-0.2-0.6-0.6-0.9-1-1.2c-1.2-1.1-2.4-2.3-3.7-3.4
			c-1.3-1.2-3.7-3.1-5-4.3c0.6-0.6,5.7-3.3,6.8-5.2c0.3-0.1,1.6,0.7,1.9,1c2.1,2,4.4,3.7,6.8,5.3c2.3,1.5,4.7,2.7,7.1,4
			c0.4,0.2,0.7,0.4,1.1,0.5c0.3,0.1,0.6-0.1,0.8-0.3c0.1-0.2,0.4-0.5,0.1-0.7c-0.6-0.6-0.9-1.4-1.4-2c-0.7-0.8-1.4-1.7-2.1-2.5
			c-1-1.2-2.6-2.5-3.8-3.4c-2.1-1.6-2.9-4.8-3.5-7.1c0.8-0.1,21.4-7.1,23.5-8.6c0.6,0.2,0.8,0.8,1.2,1.3c1.4,1.6,3.1,2.8,4.8,4
			c0.3,1.3,0.2,2.7,0.5,4c0.4,1.8,0.6,3.5,0.9,5.3c0.1,0.4,0.2,0.7,0.7,0.7s0.8-0.2,0.9-0.7c0-0.4,0.2-0.8,0.3-1.2
			c0.6-2.1,1.4-5.7,1.6-7.9c2.1,0.2,4.2,0.5,6.3,0c0.5-0.1,0.9,0.1,1.1,0.7c0.4,0.7,2.1,2.4,2.3,3c0,0.1,0,2,0,2.1
			c0.1,4.1-0.6,8.2-0.7,12.3c0,3.8,0.3,7.6,0.8,11.3c0.4,2.7,0.9,5.4,1.7,8.1c0.8,2.9,1.7,5.8,2.4,8.7c0.8,3.3,2,6.5,3.3,9.6
			c1.2,3,2.5,6,4.2,8.7c0.9,1.4,1.9,2.8,3.1,4c0.1,0.1,0.1,0.4,0.4,0.3c0.2-0.1,0.2-0.3,0.2-0.5c-0.3-1.4-0.2-2.9-0.3-4.3
			c-0.2-1.8-0.2-3.7-0.3-5.5c-0.1-2.1-0.2-4.1-0.3-6.2c-0.1-2.2-0.2-4.4-0.2-6.5c0-2.2,0.2-4.3,0.1-6.5c-0.1-3.4,0-6.8,0-10.1
			c0-1.5,0.3-2.9,0.4-4.4c0.4-1.1,0.4-2.3,0.5-3.4c0.4-3.4,0.3-8.2-0.1-11.6c0.4-0.4,0.7-0.2,1.1,0.1c2.4,2.2,9.8,3.3,10.2,3.6
			c-1.6,6.2-3.2,13.7-3.8,20.1c-0.2,2.1-0.2,4.2-0.3,6.4c0,0.2,0.1,0.3-0.1,0.5c-0.2,0.2-0.1,0.3,0,0.5c0.1,0.1,0.1,0.3,0,0.4
			c-0.2,0.2-0.1,0.4-0.1,0.6c0.1,0.8,0.2,1.6,0.2,2.4c0,3.7,0.6,7.4,1,11c0.5,4,1.7,7.8,2.4,11.8c0,0.2,0.1,0.3,0.2,0.4
			c0.2,0.1,0.2,0.2,0.2,0.4C145.3,146.3,145.6,147.2,146.2,148z"/>
		<path class="st2" d="M98.6,71.8c-2,1.6-4.3,2.8-6.6,3.9c-3.1,1.6-6.4,2.8-9.7,3.9c-1.4,0.4-2.8,0.9-4.2,1.2
			c-0.8,0.1-1.5,0.5-2.3,0.6c-0.4,0.1-0.7,0.1-1.1,0.2c-1.2,0.2-2.5,0.5-3.7,0.5c0-0.5-36-11.6-36.4-11.4c-0.6-1.1-0.9-2.3-1.1-3.5
			c0-2.1,0.3-4.2,1.3-6.1c0.6-1.3,1.4-2.5,2.4-3.7c-1-0.3-1.9-0.4-2.7-0.7c-5.3-1.8-8.1-7-6.3-12.3c1.2-3.5,3.7-5.8,7.1-7.1
			c1.5-0.6,3.1-1,4.8-1c-1-1-1.7-2-2.2-3.2c-1.5-4.2,0.3-8.4,3.7-11.1c1.4-1.1,2.9-1.8,4.6-2.3c0.4-0.1,0.7-0.2,0.5-0.7
			c-0.9-3.8,0.2-7,2.9-9.6c4.1-3.9,8.9-5,14.2-3c0.4,0.1,0.7,0.2,1-0.3c2.5-4,6.2-6.1,11-5.8c4.9,0.4,8.3,2.9,10.3,7.5
			c0.1,0.3,0.2,0.6,0.4,0.9c0.3,0,0.3-0.2,0.5-0.3c5.6-5.3,14.1-5.3,19.5,0.2c1.3,1.3,2.4,2.8,3.1,4.6c0.2,0.4,0.3,0.6,0.8,0.6
			c4.5-0.4,7.7,1.8,10.1,5.3c1.8,2.7,2.6,5.7,2.3,9C122.2,28.5,98.1,70.9,98.6,71.8z"/>
		<path class="st3" d="M98.6,71.8c-0.5-0.9-1-1.7-1.5-2.6c-0.4-0.7-0.7-1.4-0.9-2.1c-0.2-0.8-0.6-1.6-0.8-2.4
			c-0.2-1.1-0.4-2.2-0.6-3.4c-0.3-2.6,0.1-5.2,0.7-7.7c0.6-2.3,1.9-4.2,3.1-6.2c0.4-0.6,0.9-1.1,1.4-1.6c2.2-2.3,4.8-3.9,8-4.6
			c1.2-0.3,2.3-0.6,3.6-0.6c0.6,0,0.9-0.5,0.9-1c0.4-2.9,1.9-5.1,3.8-7.2c1.3-1.4,2.9-2.5,4.5-3.4c0.6-0.3,1.2-0.4,1.6-1
			c0.3,0.3,0.7,0,1-0.1c5.8-1.6,11-0.5,15.6,3.2c1.2,1,2.2,2.3,3,3.7c0.3,0.6,0.7,0.8,1.4,0.7c5.4-0.8,10.7-0.1,15.5,2.6
			c4.5,2.5,7.6,6.2,8.3,11.5c0.2,1.7,0,3.3-0.4,5c-0.4,1.3-0.4,1.3,0.9,1.7c2.7,0.9,5.1,2.2,6.8,4.5c2.3,3,2.5,6.3,0.8,9.6
			s-4.6,5.4-7.8,7c-0.6,0.3-1.1,0.6-1.8,0.7c-0.9-1.8-41.1,6.8-41,7.6c-0.6-0.2-1.2-0.4-1.9-0.6c-0.4-0.5-1.1-0.6-1.6-0.8
			c-0.8-0.4-1.2-1.3-2.2-1.3c-0.1-0.6-0.7-0.9-1.1-1.4c-0.4-0.6-1-1.1-1.3-1.8c-0.3-0.5-0.6-0.8-1.1-0.7c-2.1,0.4-4.2,0.1-6.3-0.1
			c-1.6-0.6-3.1-1.2-4.7-1.8c-1.7-1.2-3.4-2.5-4.8-4C99.5,72.6,99.2,72,98.6,71.8z M166.4,77.5c-0.1,0-0.1,0-0.1,0
			C166.3,77.5,166.3,77.5,166.4,77.5C166.3,77.5,166.3,77.5,166.4,77.5z"/>
		<path class="st3" d="M33.4,67.2c0.2,1.2,28.5,25.6,29,24.5c1.3,1.2,6.4,5.8,7.6,7c0.4,0.4,0.9,0.7,1,1.2c0,0.4,0.1,0.7,0.3,1.1
			c0.5,1.5,1.1,3.1,1.4,4.7c-0.4,1.8-1.1,3.4-2.1,4.9c-0.5-0.3-17.2,23.1-16.9,23.5c-4,0.9-7.7,0.4-10.7-2.7c-0.4-0.4-0.6-0.3-0.9,0
			c-2.5,2-5.3,3.4-8.3,4.2c-3.1,0.8-6.1,1-9.1-0.2c-3.7-1.5-5.8-5-5.5-9.2c0.1-2.1,0.8-4.1,1.7-6c0.3-0.6,0.2-0.9-0.4-1.1
			c-5.7-2.7-8.4-8.7-7.6-14.8c0.5-4.1,2.2-7.7,4.5-11c1.2-1.7,2.8-3.3,4.5-4.6c0.5-0.4,0.7-0.7,0.5-1.4c-1.7-6.3,0-11.7,4.7-16.2
			C28.9,69.2,31,68,33.4,67.2z"/>
		<path class="st2" d="M124.9,85.6c-0.1-0.8-0.6-1.4-1-2c-1.4-2.3-1.1-4.5,0.2-6.6c0.2-0.4,0.3-0.7,0-1.1c-1.1-1.3-2.2-2.6-2.9-4.2
			c-1.2-2.6-1.7-6.3,1-8.6c1.9-1.6,4-1.5,6.2-1c1.2,0.3,1.3,0.4,1.7-0.8c1-3.1,5.1-5.3,8.1-5.3c3.1,0.1,5.9,1.1,8.5,2.8
			c0.6,0.4,1.1,0.8,1.6,1.3c0.4,0.3,0.7,0.3,1,0.1c1.4-0.7,3-0.8,4.6-0.8c2.6,0,4.5,1.3,6.2,2.9c1.3,1.2,2.2,2.9,2.6,4.7
			c0.5,2,0.3,3.9-0.5,5.8c-0.1,0.3-0.2,0.5,0.1,0.7c1.9,1,2.8,2.8,3.7,4.6c0.4,1.7,0.7,3.4,0.5,5.1c-0.6,6.2-6.4,11.2-12.6,10.9
			c-1.7-0.1-3.3-0.5-4.8-1.4c-0.6-0.4-1.2-0.5-1.9-0.4c-0.6,0.1-1.2,0-1.8,0c-0.4-0.3-1-0.2-1.4-0.2c-3.3,0.2-6.1-1.1-8.4-3.3
			c-0.4-0.3-0.7-0.5-1.1-0.1c-2.7,0.8-5.2,0.3-7.5-1.3C126.2,86.7,125.7,86,124.9,85.6z"/>
		<path class="st2" d="M53.8,134c-0.3-0.4-0.8,0-1.1-0.1c-2.9-1.2-5.3-2.8-5.8-6.2c-0.1-0.9-0.4-1.7,0-2.6c0.2-0.3,0-0.7-0.4-0.8
			c-1.2-0.4-1.8-1.4-2.4-2.4c-1.7-2.8-1.3-5.7,0.9-8.2c0.8-0.9,1.7-1.6,2.8-1.9c0.5-0.1,0.6-0.5,0.7-0.9c0.6-2.3,1.4-4.5,3.4-6
			c2.1-1.7,4.5-2.1,7-0.9c0.6,0.3,0.8,0.1,1.1-0.3c0.9-1.1,1.9-2.1,3.5-2.3c1.5-0.2,3.2,1.1,3.8,2.1c1,1.6,1.2,3.5,1.2,5.3
			c0,0.6,0.3,0.9,0.7,1c0.6,0.1,1,0.5,1.5,0.8c0.1,0.1,0.1,0.3,0.2,0.4c1.4,1.8,1.6,3.9,0.9,6c-0.3,1-1,1.8-1.7,2.6
			c-0.5,0.2-0.9,0.6-1.5,0.6c-0.4,0-0.6,0.4-0.6,0.8c0,2.6-1.4,4.4-3.5,5.7c-0.5,0.3-1.2,0.4-1.4,1.1c-0.9,3.7-3.3,5.7-7,6.3
			C55.2,134.2,54.5,134.2,53.8,134z"/>
		<path class="st0" d="M86.2,144.1c0.1,0,0.2,0,0.2,0c2.6,2.7,5.3,5.3,7.6,8.2c2.6,3.3,5,6.6,7.3,10.2c0,0,0,0.1,0,0.2
			c-1.6-1.1-2.9-2.6-4.2-4c-2.9-3-5.5-6.2-7.8-9.5C88.2,147.5,87.1,145.9,86.2,144.1z"/>
		<path class="st0" d="M146.2,148c-0.6-0.8-0.9-1.6-0.8-2.6C145.6,146.2,145.9,147.1,146.2,148z"/>
		<path class="st0" d="M141.5,118.3c-0.2-0.2-0.2-0.3,0-0.5C141.5,118,141.5,118.2,141.5,118.3z"/>
		<path class="st0" d="M101.4,162.7c0.2,0,0.2,0.2,0.2,0.3C101.5,162.9,101.4,162.8,101.4,162.7z"/>
		<path class="st0" d="M119.2,82.9c1,0,1.5,0.9,2.2,1.3c0.5,0.3,1.2,0.3,1.6,0.8c0.5,1.3,1.1,2.5,1.5,3.8c0.3,0.9,0.8,1.6,1.4,2.3
			c1.5,1.7,2.9,3.5,4.2,5.4c1.4,1.9,2.6,3.8,3.8,5.8c-0.1,1.5-0.4,2.9-0.4,4.4c0,3.4-0.1,6.8,0,10.1c0.1,2.1-0.1,4.3-0.1,6.5
			s0.1,4.4,0.2,6.5c0.1,2.1,0.2,4.1,0.3,6.2c0.1,1.8,0.1,3.7,0.3,5.5c0.2,1.4,0.1,2.9,0.3,4.3c0,0.2,0,0.4-0.2,0.5s-0.3-0.2-0.4-0.3
			c-1.2-1.2-2.2-2.6-3.1-4c-1.7-2.7-3-5.7-4.2-8.7c-1.3-3.1-2.5-6.3-3.3-9.6c-0.7-2.9-1.6-5.8-2.4-8.7c-0.7-2.7-1.3-5.4-1.7-8.1
			c-0.5-3.8-0.8-7.5-0.8-11.3c0-4.1,0.6-8.2,0.5-12.3C119.1,83.1,119.2,83,119.2,82.9z"/>
		<path class="st2" d="M166.4,77.5C166.3,77.5,166.3,77.5,166.4,77.5c-0.1,0-0.1,0-0.1,0C166.3,77.4,166.3,77.5,166.4,77.5z"/>
		<path class="st4" d="M62.4,91.7c-0.5,1.2-0.9,2.4-1.6,3.5c-2.3,3.6-5.6,5.4-9.8,5.7c-3.3,0.2-6.3-0.8-8.9-2.8
			c-1.8-1.5-3.2-3.3-4-5.6c-0.6-2-0.6-3.9-0.3-5.9c0-0.2,0-0.4,0.2-0.6c0.3-0.4,0.2-0.8-0.2-1.1c-1.8-1.1-3-2.7-3.8-4.5
			c-0.7-1.5-0.9-3.1-0.8-4.8c0.2-1.7,0.9-3.2,1.3-4.9c0.5-0.2,0.6-0.7,0.9-1c1.5-1.8,3.4-3,5.6-3.6c1.3-0.4,1.3-0.4,1.7-2
			c0.7-3,2.4-5.4,4.7-7.4c2.3-2.1,4.9-2.9,7.9-2.7c1.6,0.1,3,0.8,4.3,1.9c0.6,0.5,0.9,0.5,1.2-0.3c1-2.5,3.1-3.5,5.6-3.6
			c1.1,0,2.4,0.3,3.1,1c0.9,0.8,1.8,1.8,2.4,3c0.8,1.7,0.9,3.4,1.1,5.2c0.1,1,0.1,2.1-0.2,3.1c-0.2,0.6,0.1,0.8,0.5,0.9
			c1.6,0.6,2.8,1.7,3.7,3.3c0.5,0.9,0.4,1.9,0.6,2.9c0.6,2.4-0.1,4.6-1.3,6.6c-1.1,1.7-2.5,3.2-4.7,3.6c-0.3,0.1-0.6,0.1-0.7,0.5
			c-0.1,0.2-0.2,0.4-0.2,0.5c-0.3,1.4-0.7,2.7-1.5,4c-1.1,1.9-2.6,3.4-4.6,4.4C63.9,91.2,63,91,62.4,91.7z"/>
		<path class="st5" d="M106.7,173.4c0.1-0.1,0.3-0.1,0.4-0.2c1-1.7,2.5-2.9,4-4c1.6-1.3,3.5-2.3,5.2-3.4c3.1-1.9,6.5-3.3,9.7-4.9
			c2.3-1.1,4.7-2,7.1-2.8c1.7-0.6,3.5-1.2,5.3-1.7c1.9-0.5,3.9-1.1,5.9-1.4c1.7-0.2,3.4-0.3,5,0.2c0.6,1.7,0.4,2.6-1.1,3.9
			c-2.2,2-4.7,3.7-7.2,5.2c-1.4,0.8-2.7,1.8-4.2,2.4c-2.1,0.9-4.1,2-6.2,2.9c-2,0.8-3.9,1.6-5.9,2.3c-1.1,0.4-2.4,0.6-3.5,1.3
			c-0.3,0.2-0.6,0.2-0.9,0.2c-0.7,0.1-1.3,0.2-1.9,0.6c-0.1,0.1-0.3,0.1-0.4,0.1c-2.5,0.4-4.9,1.3-7.4,1.3c-0.9,0-1.7-0.2-2.5-0.3
			c-0.3,0-0.5-0.2-0.7-0.5C107,174.4,106.8,173.9,106.7,173.4z"/>
	</g>
	<g>
		<path class="st0" d="M129.8,145.2c0-0.2,0.2-0.3,0.4-0.3c3.6-1.7,7-3.9,10.7-5.4c3.4-1.4,6.8-2.9,10.4-3.9
			c0.8-0.2,1.5-0.5,2.3-0.8c0.2-0.1,0.4-0.3,0.6-0.1c-4.1,2.2-8.1,4.6-12.5,6.3c-3.4,1.4-6.8,2.7-10.4,3.6
			C130.7,144.7,130.3,145,129.8,145.2z"/>
		<path class="st0" d="M148.5,63.7c1.5-0.7,5.5-2.2,5.8-2.3c0.1,0.8-1,1.8-1.3,2.4c-2.1,4.2-4,8.6-6,12.9c-1.3,2.8-3,5.4-4.7,8
			c-1.9,2.8-3.9,5.4-6.1,7.9c-1.3,1.4-2.6,2.7-3.9,4.2c-1.6,1.8-3.3,3.5-5,5.2c-1.1,1.2-2.4,2.3-3.6,3.3c-1.3,1.2-2.6,2.4-4,3.4
			c-2,1.6-4,3.1-6.3,4.3c-1.2,0.7-2.5,1.3-3.8,1.7c-0.2,0-0.3,0.2-0.5,0.1c-0.2-0.2,0-0.4,0.1-0.5c1.2-1.7,2.2-3.4,3.2-5.2
			c1.5-2.4,2.9-4.7,4.3-7.2c0.9-1.6,2-3.1,2.8-4.7c1-2.1,2.3-4.1,3.3-6.1c1.3-2.6,2.7-5.1,3.9-7.8c1-2.2,2.1-4.4,2.9-6.7
			c0.1-0.2,0.1-0.5,0.4-0.7c3.3-2,6.6-3.8,10.1-5.4c1.8-0.8,3.6-1.4,5.1-2.9c0.7-0.7,1.6-1.4,2.4-2
			C148.1,65.5,148.4,64.1,148.5,63.7z"/>
		<path class="st0" d="M166.3,55.1c1.6,0.5,3.2,0.5,4.9,0.4c0.2,0,0.5,0.1,0.7,0.1c0.3,1.4,1.1,2.7,1.6,4c0.2,0.4,0.9,0.3,1.1,0.7
			c-2.5,1.5-5.2,3.6-6.4,6.4c-0.7,1.7-2,3.1-3,4.6c-0.7,1-1.5,2-2.2,3.1c-0.5,0.8-1.4,1.4-1.8,2.2c-0.2,0.3-0.5,0.2-0.8,0.1
			c-0.4-0.1-0.7-0.4-0.6-0.8c0-0.5,0.1-0.9,0.2-1.4c0.8-3.1,1.4-6.2,2.4-9.2c1-3.2,2.2-6.3,3.9-9.2
			C166.4,55.7,166.5,55.4,166.3,55.1z"/>
		<path class="st0" d="M185.2,87.4c-0.2,2.1-0.3,4.2-0.5,6.3c-2.5,0.3-5.1,0.2-7.7,0.2c-0.5,0-1-0.1-1.4,0c-0.7,0.1-0.9-0.3-1.1-0.9
			c-0.2-0.6,0.2-0.9,0.6-1.1c1.9-0.9,3.8-1.7,5.7-2.7C182.2,88.5,183.8,88.1,185.2,87.4z"/>
		<path class="st1" d="M127.1,147c-1.3,1-2.6,2-3.9,3c-0.8,0.6-1.6,1.3-2.3,2c-0.7,0.6-2-0.1-2.7-0.4c-2-0.7-3-1.2-4.7-2.5
			c-2.4-1.9-4.5-4-6.6-6.3c-1.9-2.1-3.8-4.2-5.5-6.5c-0.9-1.2-1.8-2.4-2.7-3.6c-1.1-1.4-2-2.9-3-4.5c-1.3-2.1-2.7-4.1-3.6-6.4
			c-0.5-1.3-1-2.6-1.1-4c-0.1-0.9,0.1-1.6,0.9-2.1c2.5-1.7,4.8-3.8,7-5.8c0.7-0.6,1.3-1.3,1.9-2c0.1-0.1,0.2-0.2,0.2-0.3l0,0
			c0,0,0.1,0,0.1-0.1c2.8-3.1,5.4-6.3,7.9-9.7c2.2-3,4-6.3,5.9-9.5c0-0.1,0-0.2,0-0.2c2.8-5.2,5.1-10.6,6.8-16.2
			c1.1-3.5,2.1-7,2.8-10.6c0.7,0.1,9.2,1.5,9.4,1.9c0.2,1.2,0.2,2.1,0.4,2.7c-1.3,2.3-2.7,4.6-3.6,7.2c-0.3,0.9-0.7,1.8-0.7,2.8
			c-0.3,0.1-0.3,0.4-0.4,0.7c-0.7,2.3-1.9,4.5-2.9,6.7c-1.2,2.6-2.6,5.2-3.9,7.8c-1.1,2.1-2.3,4-3.3,6.1c-0.8,1.6-1.9,3.1-2.8,4.7
			c-1.3,2.4-2.8,4.8-4.3,7.2c-1.1,1.7-2,3.5-3.2,5.2c-0.1,0.2-0.3,0.3-0.1,0.5c0.2,0.1,0.3,0,0.5-0.1c1.4-0.4,2.6-1,3.8-1.7
			c2.2-1.3,4.3-2.7,6.3-4.3c1.4-1.1,2.7-2.3,4-3.4c1.2-1.1,2.5-2.2,3.6-3.3c1.7-1.7,3.4-3.4,5-5.2c1.2-1.4,2.6-2.7,3.9-4.2
			c2.2-2.5,4.2-5.1,6.1-7.9c1.7-2.6,3.4-5.2,4.7-8c2-4.3,3.9-8.7,6-12.9c0.3-0.6,0.8-1.2,0.7-2c0.5-0.3,0.7-0.8,0.9-1.3
			c0.8-1.5,1.6-2.9,2.3-4.4c0.8-1.6,2-4.3,2.8-5.9c0.8,0.4,4.7,4.7,6.8,5.2c0.2,0.3-0.3,1.7-0.5,2.1c-1.4,2.5-2.5,5.2-3.3,7.9
			c-0.8,2.6-1.3,5.3-2,7.9c-0.1,0.4-0.2,0.8-0.2,1.2c0,0.4,0.2,0.6,0.5,0.7c0.2,0.1,0.6,0.2,0.7-0.1c0.4-0.7,1.1-1.2,1.6-1.9
			c0.6-0.9,1.3-1.8,1.9-2.7c0.9-1.3,1.7-3.1,2.3-4.6c1-2.4,3.8-4,5.9-5.3c0.3,0.8,12.5,18.8,14.5,20.4c-0.1,0.7-0.6,1-0.9,1.5
			c-1.1,1.8-1.9,3.7-2.6,5.7c-1.2,0.6-2.5,0.9-3.8,1.5c-1.6,0.8-3.2,1.5-4.9,2.3c-0.3,0.2-0.7,0.4-0.5,0.9s0.4,0.8,0.9,0.7
			c0.4-0.1,0.8,0,1.2,0c2.2,0,5.9-0.2,8-0.5c0.4,2.1,0.7,4.2,1.6,6.1c0.2,0.5,0.1,0.9-0.3,1.3c-0.5,0.5-1.7,2.7-2.3,3
			c-0.1,0-1.9,0.5-2,0.5c-3.9,1.1-8.1,1.6-12.1,2.6c-3.7,1-7.2,2.3-10.7,3.8c-2.5,1.1-5,2.3-7.4,3.7c-2.6,1.5-5.1,3.1-7.8,4.6
			c-3,1.6-5.7,3.6-8.4,5.7c-2.5,2-5.1,4-7.3,6.4c-1.1,1.3-2.2,2.5-3,4c-0.1,0.1-0.3,0.2-0.2,0.4c0.1,0.2,0.4,0.1,0.6,0
			c1.3-0.6,2.7-0.9,4.1-1.5c1.7-0.7,3.5-1.2,5.2-1.8c2-0.7,3.9-1.3,5.9-1.9c2.1-0.7,4.1-1.4,6.2-1.9c2.1-0.6,4.2-1,6.3-1.6
			c3.2-1,6.5-1.8,9.8-2.7c1.4-0.4,2.9-0.5,4.3-0.8c1.2,0.1,2.3-0.2,3.4-0.4c3.4-0.5,8-1.9,11.2-3.2c0.5,0.3,0.4,0.7,0.2,1.1
			c-1.5,2.9-0.6,10.3-0.7,10.8c-6.4,0.1-14.1,0.5-20.4,1.7c-2.1,0.4-4.2,0.9-6.2,1.4c-0.2,0-0.3,0.1-0.5,0s-0.4,0-0.5,0.1
			s-0.2,0.1-0.4,0.1c-0.2-0.2-0.4,0-0.6,0.1c-0.8,0.3-1.5,0.6-2.3,0.8c-3.6,1-7,2.5-10.4,3.9c-3.7,1.5-7.1,3.7-10.7,5.4
			c-0.2,0.1-0.3,0.2-0.4,0.3c0,0.2-0.2,0.2-0.3,0.2C128.5,145.7,127.7,146.2,127.1,147z"/>
		<path class="st2" d="M188.1,81c-2.1-1.6-3.8-3.4-5.5-5.3c-2.4-2.6-4.4-5.4-6.3-8.3c-0.8-1.2-1.6-2.5-2.2-3.8
			c-0.3-0.7-0.9-1.4-1.2-2.1c-0.2-0.3-0.3-0.7-0.5-1c-0.5-1.1-1.1-2.2-1.4-3.5c0.4,0,1.5-37.7,1.2-38.1c0.9-0.8,2-1.5,3.1-2
			c2.1-0.6,4.1-0.8,6.2-0.4c1.4,0.3,2.8,0.7,4.2,1.4c0-1-0.1-1.9-0.1-2.8c0.3-5.6,4.6-9.7,10.1-9.3c3.6,0.2,6.5,2.1,8.8,5
			c1,1.3,1.8,2.7,2.2,4.4c0.7-1.2,1.5-2.2,2.5-2.9c3.6-2.6,8.2-1.9,11.6,0.6c1.4,1,2.5,2.3,3.4,3.9c0.2,0.3,0.3,0.6,0.9,0.3
			c3.4-1.8,6.8-1.6,10.1,0.3c4.9,2.9,7.1,7.2,6.7,12.9c0,0.4-0.1,0.7,0.5,0.9c4.6,1.4,7.5,4.4,8.5,9.1c0.9,4.8-0.6,8.8-4.5,11.9
			c-0.2,0.2-0.5,0.4-0.8,0.6c0,0.3,0.3,0.3,0.4,0.4c6.6,4,8.8,12.2,5,18.8c-0.9,1.6-2.1,3-3.6,4.2c-0.3,0.2-0.5,0.4-0.3,0.9
			c1.5,4.2,0.3,7.9-2.5,11.1c-2.1,2.5-4.8,4-8,4.6C236.1,92.3,188.8,80.3,188.1,81z"/>
		<path class="st3" d="M188.1,81c0.7-0.7,1.4-1.4,2.1-2.1c0.6-0.5,1.1-1,1.8-1.4s1.4-1,2.1-1.4c1-0.5,2.1-1,3.1-1.4
			c2.5-1,5-1.3,7.6-1.3c2.4,0,4.6,0.7,6.8,1.4c0.7,0.2,1.3,0.6,1.9,0.9c2.8,1.5,5,3.6,6.6,6.5c0.6,1.1,1.2,2.1,1.5,3.3
			c0.1,0.5,0.8,0.7,1.2,0.6c2.9-0.4,5.5,0.5,8,1.8c1.7,0.9,3.1,2.1,4.4,3.5c0.4,0.5,0.7,1.1,1.4,1.3c-0.2,0.4,0.1,0.6,0.3,0.9
			c3.1,5.1,3.4,10.5,1,15.9c-0.6,1.4-1.6,2.7-2.8,3.8c-0.5,0.5-0.6,0.9-0.3,1.5c2.2,5,2.9,10.3,1.6,15.6c-1.2,5-4,8.9-8.9,11
			c-1.6,0.7-3.2,0.9-4.9,0.9c-1.4,0-1.4,0-1.4,1.3c-0.1,2.8-0.7,5.5-2.5,7.8c-2.3,3-5.4,4.1-9,3.3c-3.7-0.8-6.5-3-8.9-5.7
			c-0.4-0.5-0.9-0.9-1.1-1.5c1.5-1.3-17.4-37.8-18.2-37.5c0-0.7,0-1.3,0.1-2c0.4-0.5,0.3-1.2,0.4-1.8c0.2-0.8,0.9-1.5,0.7-2.5
			c0.6-0.3,0.7-1,1.1-1.4c0.5-0.6,0.8-1.3,1.4-1.8c0.4-0.4,0.6-0.8,0.3-1.3c-1-1.9-1.2-4-1.6-6.1c0.2-1.7,0.4-3.3,0.5-5
			c0.7-2,1.5-3.9,2.6-5.7C187.5,82,188,81.6,188.1,81z M200.5,147.8c0-0.1,0-0.1,0-0.1S200.4,147.7,200.5,147.8
			C200.4,147.7,200.5,147.8,200.5,147.8z"/>
		<path class="st3" d="M175.3,16.9c-1.1,0.5-17.2,34.2-15.9,34.4c-0.8,1.6-4,7.7-4.7,9.2c-0.2,0.5-0.4,1-0.9,1.3
			c-0.3,0.1-0.7,0.3-1,0.5c-1.3,0.9-2.6,1.9-4.1,2.6c-1.8,0.1-3.6-0.1-5.3-0.7c0.1-0.5-26.8-10.5-27.1-10.1c-2-3.6-2.4-7.3-0.2-11
			c0.3-0.4,0.2-0.6-0.2-0.9c-2.6-1.9-4.7-4.2-6.3-6.9c-1.6-2.7-2.6-5.6-2.2-8.8c0.4-4,3.3-6.9,7.4-7.7c2.1-0.4,4.2-0.3,6.3,0.1
			c0.6,0.1,0.9,0,1-0.7c1.1-6.2,6.2-10.4,12.3-11.3c4.1-0.6,8,0.1,11.8,1.5c2,0.8,3.9,1.8,5.6,3.1c0.5,0.4,0.9,0.4,1.5,0.1
			c5.7-3.4,11.3-3.1,16.9,0.2C172.2,13,173.9,14.8,175.3,16.9z"/>
		<path class="st2" d="M181.7,110c0.7-0.3,1.2-0.9,1.7-1.4c1.8-1.9,4-2.3,6.4-1.6c0.4,0.1,0.7,0.1,1-0.3c1-1.4,2-2.8,3.3-3.9
			c2.2-1.8,5.6-3.3,8.5-1.3c2,1.4,2.5,3.5,2.6,5.7c0.1,1.3,0,1.4,1.2,1.4c3.2,0.1,6.5,3.5,7.2,6.4c0.8,3,0.5,6-0.4,8.9
			c-0.2,0.6-0.5,1.3-0.8,1.9c-0.2,0.4-0.1,0.7,0.2,1c1.1,1.2,1.6,2.6,2,4.2c0.7,2.5-0.1,4.7-1.1,6.8c-0.8,1.6-2.2,2.9-3.8,3.8
			c-1.8,1-3.7,1.4-5.7,1.1c-0.3,0-0.6,0-0.6,0.3c-0.5,2.1-1.9,3.4-3.5,4.7c-1.5,0.9-3.1,1.5-4.8,1.8c-6.1,1.1-12.5-3.2-13.8-9.3
			c-0.4-1.7-0.4-3.3,0.1-5c0.2-0.7,0.2-1.3-0.1-1.9c-0.2-0.5-0.3-1.2-0.4-1.8c0.1-0.5,0-1-0.2-1.4c-1.1-3.2-0.5-6.1,0.9-9
			c0.2-0.4,0.3-0.8-0.2-1.1c-1.5-2.4-1.7-4.9-0.7-7.5C180.9,111.5,181.5,110.8,181.7,110z"/>
		<path class="st2" d="M116.2,54.1c0.3-0.4-0.2-0.7-0.2-1.1c0.4-3.1,1.3-5.9,4.5-7.2c0.8-0.3,1.6-0.9,2.5-0.7
			c0.4,0.1,0.6-0.2,0.6-0.6c0.1-1.3,0.9-2.1,1.7-2.9c2.2-2.4,5.2-2.8,8.2-1.3c1.1,0.5,2,1.2,2.6,2.2c0.3,0.4,0.6,0.4,1,0.4
			c2.4-0.1,4.7,0.2,6.7,1.7c2.2,1.6,3.3,3.7,2.8,6.5c-0.1,0.6,0.1,0.8,0.6,1c1.3,0.6,2.5,1.3,3.1,2.8c0.6,1.4-0.2,3.4-1,4.2
			c-1.3,1.4-3,2.1-4.8,2.6c-0.6,0.2-0.8,0.5-0.8,1c0,0.6-0.3,1.1-0.4,1.6c-0.1,0.1-0.2,0.2-0.3,0.3c-1.4,1.9-3.3,2.6-5.6,2.5
			c-1.1,0-2-0.5-3-1c-0.3-0.4-0.8-0.7-1-1.3c-0.2-0.4-0.5-0.4-1-0.3c-2.5,0.7-4.6-0.2-6.5-1.9c-0.4-0.4-0.7-1.1-1.4-1.1
			c-3.8,0.1-6.4-1.7-7.9-5.1C116.4,55.6,116.3,54.8,116.2,54.1z"/>
		<path class="st0" d="M115,88.1c0,0.1,0.1,0.2,0,0.2c-1.9,3.2-3.7,6.5-5.9,9.5c-2.5,3.3-5.1,6.6-7.9,9.7l-0.1,0.1
			c0.7-1.8,1.8-3.5,2.8-5.1c2.1-3.5,4.5-6.9,7.1-10.1C112.3,90.9,113.6,89.4,115,88.1z"/>
		<path class="st0" d="M127.1,147c0.6-0.8,1.4-1.3,2.3-1.5C128.7,146,127.9,146.5,127.1,147z"/>
		<path class="st0" d="M154.5,134.6c0.1-0.2,0.3-0.3,0.5-0.1C154.8,134.5,154.7,134.5,154.5,134.6z"/>
		<path class="st0" d="M101.1,107.6c0,0.2-0.1,0.2-0.2,0.3C100.9,107.8,101,107.7,101.1,107.6z"/>
		<path class="st0" d="M182.8,103.7c0.2,0.9-0.5,1.7-0.7,2.5c-0.1,0.6,0,1.3-0.4,1.8c-1.1,0.8-2.1,1.7-3.2,2.4
			c-0.8,0.5-1.3,1.2-1.8,1.9c-1.3,1.9-2.6,3.7-4.1,5.5c-1.4,1.8-3,3.5-4.6,5.2c-1.4,0.3-2.9,0.4-4.3,0.8c-3.3,0.9-6.6,1.7-9.8,2.7
			c-2.1,0.6-4.2,1-6.3,1.6s-4.2,1.2-6.2,1.9c-2,0.6-3.9,1.3-5.9,1.9c-1.7,0.6-3.5,1.1-5.2,1.8c-1.3,0.5-2.8,0.8-4.1,1.5
			c-0.2,0.1-0.4,0.2-0.6,0s0.1-0.3,0.2-0.4c0.8-1.5,1.9-2.8,3-4c2.2-2.4,4.7-4.4,7.3-6.4c2.7-2.1,5.4-4.1,8.4-5.7
			c2.6-1.5,5.2-3.1,7.8-4.6c2.4-1.4,4.9-2.6,7.4-3.7c3.5-1.5,7-2.8,10.7-3.8c4-1.1,8-1.6,12-2.8
			C182.6,103.7,182.7,103.7,182.8,103.7z"/>
		<path class="st2" d="M200.5,147.8C200.5,147.8,200.4,147.7,200.5,147.8c0-0.1,0-0.1,0-0.1S200.5,147.7,200.5,147.8z"/>
		<path class="st4" d="M159.3,51.3c-1.3-0.2-2.6-0.2-3.8-0.6c-4.1-1.3-6.7-3.9-8-8c-1-3.2-0.9-6.3,0.4-9.3c0.9-2.1,2.3-4,4.4-5.3
			c1.7-1.1,3.6-1.6,5.6-1.8c0.2,0,0.4-0.1,0.6,0c0.5,0.2,0.9,0,1-0.5c0.5-2,1.8-3.6,3.4-4.9c1.3-1,2.7-1.7,4.4-2s3.4,0,5-0.1
			c0.3,0.4,0.8,0.4,1.2,0.5c2.1,1,3.7,2.5,5,4.4c0.7,1.1,0.8,1.2,2.3,1.1c3.1-0.1,5.8,0.9,8.4,2.6c2.6,1.7,4.1,3.9,4.6,6.9
			c0.3,1.6,0,3.2-0.7,4.6c-0.3,0.7-0.2,1,0.6,1.1c2.7,0.3,4.2,2.1,4.9,4.5c0.3,1,0.4,2.4-0.1,3.3c-0.6,1.1-1.2,2.2-2.3,3.1
			c-1.4,1.2-3.1,1.7-4.7,2.5c-0.9,0.4-2,0.6-3.1,0.6c-0.6,0-0.7,0.3-0.8,0.8c-0.2,1.7-0.9,3.2-2.2,4.4c-0.7,0.7-1.7,0.9-2.6,1.4
			c-2.1,1.2-4.4,1.1-6.7,0.5c-1.9-0.6-3.7-1.6-4.7-3.6c-0.1-0.3-0.3-0.5-0.6-0.5c-0.2,0-0.4-0.1-0.6-0.1c-1.4,0.1-2.8,0-4.2-0.4
			c-2.1-0.6-4-1.6-5.4-3.3C160.2,52.6,160.1,51.7,159.3,51.3z"/>
		<path class="st5" d="M92.2,115.6c0.1,0.1,0.2,0.3,0.3,0.3c1.9,0.5,3.4,1.7,5,2.8c1.7,1.2,3.2,2.7,4.7,4.1c2.7,2.5,4.9,5.3,7.3,8.1
			c1.7,1.9,3.1,4,4.6,6.1c1.1,1.5,2.1,3.1,3,4.7c1,1.7,2.1,3.4,2.9,5.3c0.7,1.6,1.2,3.2,1.1,4.9c-1.5,1.1-2.4,1-4.1,0
			c-2.5-1.6-4.8-3.5-6.9-5.6c-1.2-1.1-2.4-2.2-3.4-3.4c-1.5-1.8-3.1-3.4-4.4-5.3c-1.3-1.7-2.6-3.4-3.8-5.1c-0.7-1-1.2-2.1-2.1-3
			c-0.2-0.2-0.3-0.5-0.5-0.8c-0.3-0.6-0.5-1.2-1.1-1.7c-0.1-0.1-0.2-0.2-0.2-0.3c-1.1-2.3-2.5-4.4-3.2-6.8c-0.2-0.8-0.3-1.7-0.4-2.5
			c0-0.3,0.1-0.5,0.3-0.8C91.4,116.2,91.7,115.8,92.2,115.6z"/>
	</g>
	<g>
		<path class="st0" d="M66.7,196.9c0-0.2,0.1-0.3,0.2-0.5c2.7-2.9,5-6.2,7.9-9c2.6-2.6,5.2-5.3,8.2-7.5c0.6-0.5,1.2-1.1,1.8-1.6
			c0.2-0.1,0.3-0.4,0.6-0.3c-3,3.6-5.8,7.3-9.2,10.6c-2.6,2.6-5.3,5-8.3,7.2C67.4,196.1,67.1,196.6,66.7,196.9z"/>
		<path class="st0" d="M53.5,114.3c1.1-1.2,4.2-4,4.5-4.3c0.3,0.7-0.2,2.1-0.3,2.7c-0.4,4.7-0.5,9.5-0.7,14.2
			c-0.2,3.1-0.7,6.1-1.3,9.1c-0.7,3.3-1.6,6.5-2.7,9.6c-0.6,1.8-1.4,3.5-2,5.3c-0.8,2.3-1.8,4.5-2.7,6.7c-0.6,1.5-1.4,3-2.1,4.5
			c-0.8,1.6-1.5,3.2-2.4,4.7c-1.3,2.2-2.6,4.3-4.2,6.3c-0.9,1.1-1.8,2.2-2.9,3.1c-0.1,0.1-0.2,0.3-0.4,0.3c-0.3-0.1-0.1-0.3-0.1-0.5
			c0.5-2,0.7-4,1-6c0.5-2.7,0.9-5.5,1.3-8.3c0.2-1.8,0.6-3.6,0.8-5.4c0.2-2.3,0.6-4.6,0.8-6.9c0.3-2.9,0.6-5.8,0.7-8.7
			c0.1-2.4,0.3-4.9,0.1-7.3c0-0.3-0.1-0.5,0.1-0.7c2.3-3.1,4.7-6,7.4-8.8c1.4-1.4,2.8-2.7,3.6-4.5c0.4-1,0.9-1.8,1.5-2.7
			C53.8,116.2,53.6,114.8,53.5,114.3z"/>
		<path class="st0" d="M66.8,99.6c1.7-0.2,3.2-0.7,4.7-1.5c0.2-0.1,0.4-0.1,0.7-0.2c0.8,1.2,2,2.1,3,3.1c0.3,0.3,0.9-0.1,1.3,0.2
			c-1.7,2.3-3.5,5.3-3.5,8.3c0,1.8-0.7,3.6-1.1,5.4c-0.3,1.2-0.6,2.5-0.9,3.7c-0.2,1-0.7,1.8-0.9,2.8c0,0.4-0.4,0.4-0.7,0.4
			c-0.4,0-0.8-0.1-0.9-0.5s-0.2-0.9-0.3-1.4c-0.4-3.1-1-6.3-1.2-9.4c-0.3-3.3-0.3-6.6,0.2-10C67.1,100.2,67.1,99.9,66.8,99.6z"/>
		<path class="st0" d="M96.4,122.5c0.6,2,1.3,4,1.9,6c-2.2,1.2-4.7,2.1-7.1,3c-0.5,0.2-0.9,0.3-1.3,0.5c-0.6,0.3-1,0.1-1.4-0.4
			s-0.2-0.9,0.1-1.2c1.4-1.6,2.9-3.1,4.3-4.6C94,124.6,95.4,123.7,96.4,122.5z"/>
		<path class="st1" d="M65,199.5c-0.8,1.4-1.7,2.8-2.5,4.3c-0.5,0.9-1,1.8-1.4,2.7c-0.4,0.8-1.9,0.7-2.7,0.7c-2.1,0-3.3,0-5.3-0.6
			c-2.9-0.9-5.7-2-8.5-3.3c-2.6-1.2-5.1-2.5-7.6-4c-1.3-0.8-2.6-1.5-3.9-2.3c-1.5-0.9-3-2-4.4-3c-2-1.4-4-2.8-5.7-4.6
			c-1-1-1.9-2-2.5-3.3c-0.4-0.8-0.5-1.5,0.1-2.3c1.7-2.5,3-5.3,4.3-8.1c0.4-0.8,0.7-1.7,1.1-2.5c0.1-0.1,0.1-0.2,0.1-0.4l0,0
			l0.1-0.1c1.5-3.9,2.6-7.9,3.7-11.9c0.9-3.6,1.4-7.3,1.9-11c0-0.1-0.1-0.1-0.1-0.2c0.6-5.8,0.7-11.7,0.2-17.6
			c-0.3-3.6-0.7-7.3-1.4-10.9c0.7-0.2,9.1-2.1,9.4-1.8c0.6,1,1,1.8,1.4,2.4c-0.4,2.7-0.8,5.3-0.6,8c0.1,0.9,0,1.9,0.4,2.9
			c-0.2,0.2-0.1,0.5-0.1,0.7c0.2,2.4,0,4.9-0.1,7.3c-0.1,2.9-0.4,5.8-0.7,8.7c-0.2,2.3-0.6,4.6-0.8,6.9c-0.2,1.8-0.6,3.6-0.8,5.4
			c-0.3,2.8-0.8,5.5-1.3,8.3c-0.3,2-0.6,4-1,6c0,0.2-0.2,0.4,0.1,0.5c0.2,0.1,0.3-0.1,0.4-0.3c1.1-0.9,2-1.9,2.9-3.1
			c1.6-2,2.9-4.1,4.2-6.3c0.9-1.5,1.6-3.1,2.4-4.7c0.7-1.5,1.5-2.9,2.1-4.5c0.9-2.2,1.9-4.4,2.7-6.7c0.6-1.8,1.4-3.5,2-5.3
			c1.1-3.1,2-6.3,2.7-9.6c0.6-3,1.2-6.1,1.3-9.1c0.3-4.7,0.3-9.5,0.7-14.2c0.1-0.7,0.3-1.4,0-2.1c0.4-0.5,0.3-1,0.4-1.6
			c0.2-1.7,0.3-3.3,0.5-5c0.2-1.8,0.2-4.8,0.4-6.5c0.9,0.1,6.1,2.6,8.3,2.3c0.3,0.2,0.4,1.7,0.3,2.1c-0.4,2.9-0.3,5.7-0.1,8.6
			c0.2,2.7,0.7,5.4,1.1,8.1c0.1,0.4,0.2,0.8,0.3,1.2c0.1,0.3,0.4,0.5,0.8,0.4c0.3,0,0.6,0,0.6-0.3c0.1-0.8,0.6-1.6,0.7-2.4
			c0.2-1.1,0.5-2.1,0.7-3.2c0.4-1.5,0.4-3.5,0.4-5.1c0-2.6,2-5.2,3.5-7.1c0.6,0.6,18.6,12.8,21.1,13.4c0.2,0.6-0.2,1.2-0.3,1.8
			c-0.4,2.1-0.4,4.2-0.3,6.2c-0.9,1-2,1.8-2.9,2.8c-1.2,1.3-2.4,2.6-3.6,3.9c-0.3,0.3-0.5,0.6-0.1,1c0.3,0.4,0.6,0.6,1.1,0.3
			c0.3-0.2,0.7-0.3,1.1-0.5c2-0.8,5.4-2.4,7.2-3.5c1.1,1.8,2.2,3.6,3.8,5c0.4,0.3,0.4,0.8,0.2,1.3c-0.3,0.7-0.6,3.1-1,3.6
			c-0.1,0-1.6,1.2-1.7,1.2c-3.2,2.5-6.9,4.5-10.2,7c-3,2.3-5.9,4.8-8.5,7.5c-1.9,2-3.8,4-5.5,6.2c-1.8,2.4-3.6,4.8-5.5,7.2
			c-2.1,2.6-3.9,5.5-5.6,8.4c-1.6,2.8-3.2,5.6-4.4,8.6c-0.6,1.6-1.1,3.2-1.3,4.9c0,0.2-0.2,0.3,0,0.5c0.2,0.1,0.4,0,0.5-0.2
			c1-1.1,2.2-1.9,3.2-2.9c1.3-1.3,2.8-2.4,4.2-3.6c1.6-1.4,3.1-2.7,4.7-4c1.7-1.4,3.3-2.8,5.1-4.1c1.7-1.3,3.5-2.5,5.2-3.8
			c2.6-2.1,5.4-4.1,8.1-6.2c1.2-0.9,2.5-1.5,3.7-2.4c1.1-0.3,2-1.1,3-1.6c3-1.7,6.7-4.8,9.2-7.1c0.6,0.1,0.6,0.5,0.6,1
			c-0.3,3.2,3.3,9.8,3.4,10.3c-5.9,2.5-12.8,5.8-18.2,9.2c-1.8,1.1-3.5,2.4-5.3,3.6c-0.1,0.1-0.2,0.3-0.4,0.2
			c-0.2,0-0.3,0.1-0.4,0.3c-0.1,0.1-0.2,0.2-0.3,0.2c-0.3-0.1-0.4,0.2-0.6,0.3c-0.6,0.5-1.2,1.1-1.8,1.6c-3,2.3-5.5,4.9-8.2,7.5
			c-2.9,2.8-5.2,6.1-7.9,9c-0.1,0.1-0.2,0.3-0.2,0.5s-0.1,0.3-0.2,0.3C65.8,197.9,65.2,198.6,65,199.5z"/>
		<path class="st2" d="M96.7,115.5c-2.5-0.7-4.8-1.7-7.1-2.8c-3.1-1.5-6.1-3.3-8.9-5.3c-1.2-0.8-2.4-1.7-3.5-2.7
			c-0.6-0.5-1.3-0.9-1.9-1.5c-0.3-0.3-0.5-0.5-0.8-0.8c-0.9-0.9-1.9-1.6-2.6-2.7c0.3-0.1-12.7-35.5-13.2-35.8c0.5-1.1,1.2-2.1,2.1-3
			c1.7-1.3,3.5-2.3,5.6-2.7c1.4-0.3,2.9-0.4,4.4-0.3c-0.3-0.9-0.8-1.7-1.1-2.6c-1.8-5.3,0.6-10.7,5.9-12.5c3.5-1.2,6.8-0.5,10,1.3
			c1.4,0.8,2.7,1.8,3.7,3.2c0.2-1.4,0.6-2.6,1.3-3.7c2.4-3.8,6.9-4.9,11-3.8c1.7,0.4,3.2,1.2,4.6,2.3c0.3,0.2,0.5,0.4,0.9,0
			c2.5-3,5.7-4.1,9.4-3.5c5.6,0.9,9.3,4,11,9.5c0.1,0.4,0.2,0.7,0.8,0.6c4.7-0.4,8.6,1.2,11.2,5.2c2.7,4.1,2.7,8.4,0.3,12.7
			c-0.2,0.3-0.3,0.5-0.5,0.8c0.1,0.2,0.4,0.2,0.5,0.2c7.6,1.2,12.7,8,11.7,15.6c-0.2,1.8-0.8,3.6-1.8,5.2c-0.2,0.4-0.3,0.6,0,1
			c3,3.3,3.3,7.2,1.9,11.2c-1,3.1-2.9,5.5-5.7,7.3C145.4,108,97.1,114.6,96.7,115.5z"/>
		<path class="st3" d="M96.7,115.5c0.4-0.9,0.8-1.8,1.2-2.8c0.3-0.7,0.6-1.4,1.1-2c0.5-0.7,0.9-1.4,1.4-2.1c0.7-0.9,1.5-1.7,2.4-2.5
			c1.9-1.9,4.1-3.1,6.6-4.1c2.2-0.9,4.5-1,6.8-1.3c0.7-0.1,1.4,0.1,2.1,0.2c3.2,0.3,6,1.5,8.5,3.5c0.9,0.8,1.9,1.5,2.6,2.4
			c0.3,0.5,1,0.3,1.4,0.1c2.5-1.4,5.2-1.6,8.1-1.3c1.9,0.2,3.7,0.8,5.4,1.6c0.6,0.3,1.1,0.7,1.8,0.7c0,0.4,0.4,0.5,0.6,0.7
			c4.8,3.6,7.1,8.4,6.9,14.4c0,1.6-0.5,3.1-1.1,4.6c-0.3,0.6-0.2,1,0.3,1.5c4,3.8,6.5,8.4,7.3,13.9c0.7,5.1-0.3,9.8-4.1,13.5
			c-1.2,1.2-2.6,2.1-4.2,2.7c-1.3,0.5-1.3,0.5-0.8,1.8c0.9,2.7,1.4,5.4,0.6,8.2c-1,3.7-3.5,5.8-7.1,6.5c-3.7,0.7-7.1-0.3-10.4-2
			c-0.6-0.3-1.2-0.5-1.6-1c0.9-1.8-30.4-28.5-30.9-28c-0.2-0.6-0.5-1.2-0.7-1.8c0.2-0.6-0.2-1.2-0.3-1.8c-0.1-0.9,0.3-1.8-0.3-2.6
			c0.4-0.5,0.3-1.2,0.5-1.7c0.2-0.7,0.3-1.5,0.6-2.2c0.2-0.5,0.2-1-0.2-1.3c-1.6-1.4-2.6-3.3-3.7-5c-0.5-1.6-0.9-3.2-1.4-4.9
			c-0.1-2.1-0.1-4.2,0.3-6.2C96.5,116.7,96.9,116.1,96.7,115.5z M133.3,172.8c0,0,0-0.1-0.1-0.1
			C133.2,172.7,133.2,172.7,133.3,172.8C133.2,172.7,133.2,172.7,133.3,172.8z"/>
		<path class="st3" d="M60.8,60.9c-0.8,0.9-3.1,38.2-1.9,37.9c-0.1,1.8-0.8,8.6-0.9,10.3c0,0.5,0,1.1-0.4,1.6
			c-0.3,0.3-0.5,0.5-0.7,0.9c-0.9,1.4-1.7,2.8-2.9,4c-1.6,0.8-3.3,1.2-5.1,1.3c-0.1-0.6-28.8,0.3-28.9,0.9c-3.2-2.6-5-5.9-4.3-10.1
			c0.1-0.5-0.1-0.6-0.5-0.7c-3.1-0.8-5.9-2.1-8.4-4.1c-2.5-1.9-4.5-4.3-5.4-7.4c-1.1-3.9,0.5-7.6,4-10c1.8-1.2,3.8-1.9,5.8-2.3
			c0.6-0.1,0.8-0.4,0.7-1c-1.3-6.2,1.8-12,7.1-15.1c3.6-2.1,7.4-3,11.5-3.1c2.1,0,4.3,0.2,6.3,0.8c0.6,0.2,1,0.1,1.4-0.5
			c4-5.2,9.3-7.1,15.7-6.1C56.4,58.5,58.7,59.5,60.8,60.9z"/>
		<path class="st2" d="M101.6,144.8c0.5-0.5,0.7-1.3,1-2c1-2.5,2.9-3.6,5.4-3.9c0.4-0.1,0.7-0.2,0.8-0.7c0.4-1.7,0.8-3.4,1.6-4.9
			c1.3-2.5,4-5.2,7.4-4.4c2.4,0.5,3.6,2.3,4.6,4.3c0.5,1.2,0.5,1.3,1.7,0.8c3-1.1,7.3,0.8,9.1,3.2c1.8,2.5,2.8,5.3,2.9,8.4
			c0,0.7,0,1.4-0.1,2c0,0.5,0.2,0.7,0.5,0.9c1.5,0.7,2.4,1.9,3.4,3.1c1.6,2,1.7,4.4,1.5,6.7c-0.1,1.8-0.9,3.5-2.1,5
			c-1.3,1.6-2.9,2.6-4.9,3.2c-0.3,0.1-0.5,0.2-0.5,0.5c0.3,2.1-0.5,3.9-1.4,5.7c-1.1,1.4-2.3,2.6-3.8,3.5
			c-5.2,3.3-12.8,1.7-16.3-3.4c-1-1.4-1.6-2.9-1.8-4.6c-0.1-0.7-0.3-1.2-0.8-1.8c-0.4-0.4-0.7-1-1.1-1.5c-0.1-0.5-0.4-0.9-0.7-1.3
			c-2.2-2.5-2.8-5.5-2.5-8.7c0-0.5,0-0.9-0.6-1c-2.3-1.7-3.4-3.9-3.5-6.7C101.5,146.5,101.8,145.6,101.6,144.8z"/>
		<path class="st2" d="M20,117.6c0.1-0.5-0.5-0.6-0.6-1c-0.8-3-1-5.9,1.5-8.4c0.6-0.6,1.1-1.4,2.1-1.6c0.4-0.1,0.5-0.4,0.4-0.8
			c-0.4-1.2,0-2.3,0.4-3.3c1.2-3,3.8-4.5,7.1-4.3c1.2,0.1,2.3,0.4,3.2,1.1c0.4,0.3,0.7,0.2,1.1,0c2.2-1,4.4-1.6,6.8-1
			c2.7,0.7,4.4,2.2,5,5c0.1,0.6,0.4,0.7,0.9,0.7c1.4,0,2.8,0.2,3.9,1.4c1,1,1.1,3.2,0.7,4.3c-0.7,1.8-2,3.1-3.5,4.2
			c-0.5,0.4-0.5,0.8-0.4,1.2c0.2,0.6,0.2,1.1,0.3,1.7c-0.1,0.1-0.1,0.3-0.2,0.4c-0.6,2.2-2.1,3.6-4.3,4.4c-1,0.4-2.1,0.3-3.2,0.2
			c-0.5-0.3-1-0.4-1.4-0.8c-0.3-0.3-0.7-0.2-1,0.1c-2.1,1.6-4.4,1.6-6.7,0.7c-0.6-0.2-1-0.7-1.7-0.5c-3.5,1.5-6.6,0.8-9.2-1.8
			C20.7,118.8,20.3,118.2,20,117.6z"/>
		<path class="st0" d="M31.7,149.5c0,0.1,0.1,0.2,0.1,0.2c-0.6,3.7-1,7.4-1.9,11c-1,4-2.2,8-3.7,11.9c0,0.1-0.1,0.1-0.1,0.1
			c-0.1-2,0.3-3.9,0.6-5.8c0.6-4.1,1.6-8.1,2.8-12C30.2,153.2,30.8,151.3,31.7,149.5z"/>
		<path class="st0" d="M65,199.5c0.2-1,0.8-1.7,1.6-2.2C66,198,65.5,198.8,65,199.5z"/>
		<path class="st0" d="M85.7,177.8c0-0.2,0.1-0.3,0.4-0.3C85.9,177.6,85.8,177.7,85.7,177.8z"/>
		<path class="st0" d="M26.1,172.8c0.1,0.1,0,0.3-0.1,0.4C26,173,26,172.9,26.1,172.8z"/>
		<path class="st0" d="M100.3,138.6c0.6,0.8,0.2,1.7,0.3,2.6c0.1,0.6,0.5,1.2,0.3,1.8c-0.7,1.2-1.3,2.4-2.1,3.5
			c-0.5,0.8-0.8,1.6-1,2.5c-0.5,2.2-1.1,4.4-1.7,6.6c-0.7,2.2-1.5,4.4-2.3,6.5c-1.2,0.8-2.5,1.5-3.7,2.4c-2.7,2.1-5.4,4-8.1,6.2
			c-1.7,1.4-3.5,2.5-5.2,3.8s-3.4,2.7-5.1,4.1c-1.6,1.3-3.2,2.7-4.7,4c-1.4,1.2-2.9,2.3-4.2,3.6c-1,1-2.3,1.8-3.2,2.9
			c-0.1,0.2-0.3,0.3-0.5,0.2s0-0.3,0-0.5c0.2-1.7,0.7-3.3,1.3-4.9c1.1-3,2.7-5.8,4.4-8.6c1.7-2.9,3.5-5.8,5.6-8.4
			c1.9-2.3,3.7-4.8,5.5-7.2c1.7-2.2,3.5-4.3,5.5-6.2c2.7-2.7,5.5-5.2,8.5-7.5c3.3-2.5,6.9-4.5,10.1-7.1
			C100.1,138.6,100.2,138.6,100.3,138.6z"/>
		<path class="st2" d="M133.3,172.8C133.2,172.7,133.2,172.7,133.3,172.8c-0.1-0.1-0.1-0.1-0.1-0.1S133.2,172.7,133.3,172.8z"/>
		<path class="st4" d="M58.9,98.8c-1.2,0.3-2.4,0.8-3.7,0.9c-4.2,0.4-7.7-1.1-10.4-4.4c-2.1-2.5-3.2-5.5-3.2-8.8
			c0-2.3,0.7-4.6,2.1-6.6c1.2-1.7,2.7-2.8,4.5-3.8c0.2-0.1,0.3-0.2,0.6-0.2c0.6,0,0.8-0.3,0.7-0.8c-0.3-2.1,0.3-4,1.3-5.8
			c0.8-1.4,1.9-2.6,3.3-3.5c1.5-0.9,3.1-1.3,4.6-2c0.4,0.2,0.9,0,1.3,0c2.3,0.1,4.4,0.9,6.3,2.2c1.1,0.8,1.2,0.8,2.6,0.2
			c2.8-1.3,5.7-1.3,8.7-0.8c3,0.6,5.3,2.1,6.9,4.6c0.9,1.4,1.2,2.9,1.1,4.5c0,0.8,0.2,1,1,0.8c2.6-0.7,4.7,0.4,6.3,2.3
			c0.7,0.8,1.2,2,1.1,3.1c-0.1,1.2-0.3,2.5-0.9,3.7c-0.9,1.6-2.2,2.8-3.4,4c-0.8,1-1.7,1.6-2.7,1.9c-0.6,0.2-0.6,0.5-0.4,1
			c0.5,1.7,0.3,3.3-0.4,4.9c-0.4,0.9-1.3,1.5-1.9,2.2c-1.5,1.9-3.7,2.7-6,3c-2,0.2-4.1-0.1-5.7-1.5c-0.2-0.2-0.4-0.4-0.8-0.2
			c-0.2,0-0.4,0.1-0.6,0.1c-1.3,0.6-2.6,1.1-4,1.2c-2.2,0.3-4.3,0-6.3-1C60.2,99.7,59.8,98.9,58.9,98.8z"/>
		<path class="st5" d="M20.8,183.6c0.1,0.1,0.3,0.2,0.4,0.2c1.9-0.3,3.8,0.3,5.6,0.7c2,0.5,4,1.3,5.9,2.1c3.4,1.3,6.6,3.1,9.8,4.7
			c2.3,1.1,4.4,2.5,6.5,3.9c1.6,1,3.1,2.1,4.6,3.2c1.6,1.2,3.2,2.4,4.7,3.8c1.2,1.2,2.3,2.5,2.9,4.1c-1,1.6-1.8,1.9-3.8,1.5
			c-2.9-0.5-5.7-1.5-8.5-2.6c-1.5-0.6-3.1-1.1-4.5-1.9c-2-1.1-4.1-2-6.1-3.2c-1.8-1.1-3.6-2.2-5.4-3.3c-1.1-0.6-1.9-1.5-3.1-2
			c-0.3-0.1-0.5-0.4-0.8-0.6c-0.5-0.4-1-0.9-1.7-1.1c-0.1,0-0.2-0.1-0.4-0.2c-1.8-1.7-4-3.1-5.5-5.1c-0.5-0.7-0.9-1.4-1.3-2.2
			c-0.2-0.3-0.1-0.5,0-0.8C20.3,184.4,20.4,184,20.8,183.6z"/>
	</g>
	<g>
		<path class="st0" d="M89.1,89.7c0.2,0,0.3,0.2,0.4,0.3c1.8,3.6,4.1,6.9,5.7,10.6c1.5,3.4,3.1,6.7,4.2,10.3
			c0.2,0.8,0.6,1.5,0.9,2.2c0.1,0.2,0.3,0.4,0.1,0.6c-2.3-4.1-4.8-8-6.7-12.3c-1.5-3.4-2.8-6.7-3.8-10.3
			C89.6,90.6,89.3,90.2,89.1,89.7z"/>
		<path class="st0" d="M171.1,106.2c0.7,1.5,2.3,5.4,2.4,5.7c-0.8,0.1-1.9-0.9-2.4-1.3c-4.3-2-8.7-3.7-13.1-5.6
			c-2.8-1.2-5.5-2.8-8.1-4.5c-2.8-1.8-5.5-3.7-8.1-5.9c-1.5-1.2-2.8-2.5-4.3-3.7c-1.9-1.5-3.6-3.2-5.3-4.9c-1.2-1.1-2.3-2.3-3.4-3.5
			c-1.2-1.3-2.4-2.5-3.5-3.9c-1.6-1.9-3.2-4-4.5-6.1c-0.7-1.2-1.4-2.4-1.9-3.8c-0.1-0.2-0.2-0.3-0.1-0.5c0.2-0.2,0.4,0,0.5,0.1
			c1.7,1.1,3.5,2.1,5.3,3.1c2.4,1.4,4.8,2.8,7.3,4.1c1.6,0.8,3.2,1.9,4.8,2.7c2.1,1,4.1,2.2,6.2,3.2c2.6,1.3,5.2,2.6,7.9,3.7
			c2.2,1,4.4,2,6.8,2.7c0.2,0.1,0.5,0.1,0.7,0.4c2.1,3.2,4,6.5,5.6,10c0.8,1.8,1.5,3.6,3,5c0.7,0.7,1.4,1.5,2,2.4
			C169.2,105.8,170.7,106.1,171.1,106.2z"/>
		<path class="st0" d="M180.2,123.8c-0.4,1.6-0.4,3.3-0.3,4.9c0,0.2,0,0.5-0.1,0.7c-1.4,0.4-2.6,1.1-4,1.8c-0.4,0.2-0.3,0.9-0.6,1.1
			c-1.5-2.4-3.7-5.1-6.5-6.2c-1.7-0.6-3.1-1.9-4.7-2.9c-1.1-0.7-2.1-1.5-3.1-2.1c-0.8-0.5-1.4-1.3-2.3-1.8c-0.3-0.2-0.2-0.5-0.1-0.8
			c0.1-0.4,0.3-0.7,0.8-0.7s0.9,0.1,1.4,0.2c3.1,0.7,6.2,1.3,9.2,2.1c3.2,0.9,6.3,2.1,9.3,3.6C179.6,123.9,179.9,124,180.2,123.8z"
			/>
		<path class="st0" d="M148.4,143.5c-2.1-0.1-4.2-0.2-6.3-0.3c-0.4-2.5-0.4-5.1-0.4-7.7c0-0.5,0.1-1,0-1.4c-0.1-0.7,0.3-1,0.8-1.2
			c0.6-0.2,0.9,0.1,1.1,0.5c1,1.9,1.8,3.8,2.8,5.7C147.3,140.6,147.6,142.1,148.4,143.5z"/>
		<path class="st1" d="M87.3,87.1c-1-1.3-2.1-2.6-3.1-3.8c-0.6-0.8-1.3-1.5-2-2.2c-0.6-0.6,0-2,0.3-2.8c0.7-2,1.1-3.1,2.4-4.7
			c1.8-2.4,3.9-4.7,6.1-6.8c2-2,4.1-3.9,6.4-5.7c1.2-0.9,2.3-1.9,3.5-2.8c1.4-1.1,2.9-2.1,4.4-3.1c2-1.4,4-2.8,6.3-3.8
			c1.3-0.6,2.5-1.1,3.9-1.2c0.9-0.1,1.6,0.1,2.2,0.9c1.8,2.5,3.9,4.7,6,6.9c0.6,0.6,1.4,1.2,2,1.9c0.1,0.1,0.2,0.2,0.3,0.2l0,0
			l0.1,0.1c3.1,2.7,6.5,5.2,9.9,7.6c3,2.1,6.4,3.8,9.6,5.7c0.1,0,0.2,0,0.2,0c5.2,2.7,10.7,4.8,16.4,6.3c3.5,1,7.1,1.9,10.7,2.5
			c0,0.7-1.2,9.3-1.6,9.5c-1.2,0.2-2.1,0.3-2.7,0.5c-2.4-1.3-4.7-2.6-7.3-3.4c-0.9-0.3-1.8-0.7-2.8-0.6c-0.1-0.3-0.4-0.3-0.7-0.4
			c-2.4-0.7-4.6-1.7-6.8-2.7c-2.7-1.2-5.3-2.4-7.9-3.7c-2.1-1-4.1-2.2-6.2-3.2c-1.7-0.8-3.2-1.8-4.8-2.7c-2.5-1.3-4.9-2.7-7.3-4.1
			c-1.8-1-3.6-1.9-5.3-3.1c-0.2-0.1-0.3-0.3-0.5-0.1c-0.1,0.2,0,0.3,0.1,0.5c0.5,1.3,1.1,2.6,1.9,3.8c1.3,2.2,2.9,4.2,4.5,6.1
			c1.1,1.3,2.3,2.6,3.5,3.9c1.1,1.2,2.2,2.4,3.4,3.5c1.8,1.6,3.5,3.3,5.3,4.9c1.5,1.2,2.8,2.5,4.3,3.7c2.6,2.1,5.3,4.1,8.1,5.9
			c2.6,1.7,5.3,3.2,8.1,4.5c4.3,1.9,8.8,3.6,13.1,5.6c0.6,0.3,1.2,0.8,2,0.7c0.3,0.5,0.9,0.6,1.3,0.9c1.5,0.7,3,1.5,4.5,2.2
			c1.6,0.8,4.4,1.9,6,2.6c-0.4,0.8-4.5,4.8-5,7c-0.3,0.2-1.8-0.2-2.1-0.4c-2.6-1.3-5.3-2.3-8-3.1c-2.6-0.7-5.3-1.2-8-1.8
			c-0.4-0.1-0.8-0.1-1.2-0.2c-0.4,0-0.6,0.2-0.7,0.6c-0.1,0.3-0.2,0.6,0.1,0.7c0.8,0.4,1.3,1.1,2,1.5c0.9,0.6,1.8,1.2,2.7,1.8
			c1.3,0.9,3.2,1.6,4.7,2.1c2.4,0.9,4.1,3.7,5.4,5.8c-0.7,0.3-18.5,13-20,15.1c-0.7,0-1-0.6-1.5-0.9c-1.8-1.1-3.7-1.8-5.7-2.5
			c-0.7-1.2-1-2.5-1.6-3.7c-0.8-1.6-1.6-3.2-2.4-4.8c-0.2-0.3-0.4-0.7-0.9-0.5c-0.4,0.2-0.7,0.4-0.6,1c0.1,0.4,0,0.8,0.1,1.2
			c0.1,2.2,0.4,5.9,0.7,8c-2,0.4-4.2,0.8-6.1,1.8c-0.5,0.2-0.9,0.1-1.3-0.3c-0.5-0.5-2.7-1.6-3.1-2.2c0-0.1-0.5-1.9-0.6-2
			c-1.2-3.9-1.8-8-2.9-12c-1.1-3.7-2.4-7.2-4-10.6c-1.2-2.5-2.5-4.9-3.9-7.3c-1.6-2.5-3.3-5.1-4.8-7.7c-1.7-2.9-3.8-5.6-5.9-8.2
			c-2-2.5-4.1-5-6.6-7.1c-1.3-1.1-2.6-2.2-4.1-2.9c-0.1-0.1-0.2-0.3-0.4-0.2c-0.2,0.2-0.1,0.4,0,0.6c0.7,1.3,1,2.7,1.6,4
			c0.7,1.7,1.3,3.4,1.9,5.2c0.7,1.9,1.4,3.9,2.1,5.8c0.7,2.1,1.5,4.1,2.1,6.2s1.1,4.2,1.8,6.2c1.1,3.2,2,6.5,2.9,9.7
			c0.4,1.4,0.6,2.9,0.9,4.3c-0.1,1.2,0.3,2.3,0.5,3.4c0.6,3.4,2.1,7.9,3.5,11.1c-0.3,0.5-0.7,0.4-1.1,0.2
			c-2.9-1.4-10.3-0.3-10.8-0.4c-0.3-6.4-0.9-14-2.2-20.3c-0.4-2.1-1-4.1-1.5-6.2c0-0.2-0.1-0.3,0-0.5s0-0.4-0.2-0.5
			c-0.1-0.1-0.1-0.2-0.1-0.4c0.2-0.2,0-0.4-0.1-0.6c-0.3-0.7-0.7-1.5-0.9-2.2c-1.1-3.6-2.7-6.9-4.2-10.3c-1.6-3.7-3.9-7-5.7-10.6
			c-0.1-0.2-0.2-0.3-0.4-0.3c-0.2,0-0.2-0.2-0.3-0.3C88.6,88.4,88.1,87.7,87.3,87.1z"/>
		<path class="st2" d="M154.9,146.2c1.5-2.1,3.3-3.9,5.2-5.7c2.5-2.4,5.3-4.5,8.1-6.5c1.2-0.8,2.4-1.7,3.7-2.3
			c0.7-0.4,1.3-0.9,2.1-1.2c0.3-0.2,0.7-0.3,1-0.5c1.1-0.5,2.2-1.2,3.4-1.5c0,0.4,37.7,0.5,38.1,0.2c0.8,0.9,1.5,1.9,2.1,3
			c0.6,2,0.9,4.1,0.6,6.2c-0.2,1.4-0.7,2.8-1.2,4.2c1,0,1.9-0.2,2.8-0.2c5.6,0.1,9.8,4.3,9.6,9.9c-0.1,3.6-1.9,6.6-4.7,8.9
			c-1.3,1-2.6,1.9-4.3,2.4c1.2,0.7,2.2,1.4,3,2.5c2.7,3.5,2.1,8.2-0.3,11.6c-1,1.4-2.3,2.6-3.8,3.5c-0.3,0.2-0.6,0.4-0.3,0.9
			c1.9,3.3,1.8,6.8,0,10.1c-2.8,4.9-7,7.3-12.7,7c-0.4,0-0.7,0-0.9,0.5c-1.3,4.6-4.2,7.6-8.8,8.7c-4.8,1.1-8.8-0.4-12-4.2
			c-0.2-0.2-0.4-0.5-0.6-0.7c-0.3,0-0.3,0.3-0.4,0.4c-3.8,6.7-11.9,9.1-18.7,5.5c-1.6-0.9-3.1-2-4.3-3.5c-0.3-0.3-0.5-0.5-0.9-0.3
			c-4.2,1.7-7.9,0.5-11.2-2.2c-2.5-2-4.1-4.7-4.8-7.9C144.9,194.5,155.6,146.9,154.9,146.2z"/>
		<path class="st3" d="M154.9,146.2c0.7,0.7,1.5,1.4,2.2,2.1c0.5,0.5,1.1,1.1,1.5,1.7c0.5,0.7,1,1.3,1.5,2.1c0.6,1,1,2,1.5,3.1
			c1.1,2.4,1.5,5,1.5,7.6c0.1,2.4-0.6,4.6-1.2,6.8c-0.2,0.7-0.6,1.3-0.9,2c-1.4,2.9-3.5,5.1-6.3,6.7c-1.1,0.6-2,1.3-3.2,1.6
			c-0.5,0.2-0.7,0.8-0.6,1.2c0.5,2.9-0.3,5.5-1.6,8c-0.8,1.7-2,3.2-3.4,4.5c-0.4,0.5-1.1,0.7-1.3,1.4c-0.4-0.2-0.6,0.2-0.9,0.3
			c-5,3.2-10.4,3.7-15.9,1.5c-1.5-0.6-2.8-1.5-3.9-2.7c-0.5-0.5-0.9-0.6-1.5-0.3c-5,2.4-10.2,3.2-15.6,2c-5.1-1.1-9-3.7-11.2-8.6
			c-0.7-1.5-1-3.2-1.1-4.9c0-1.4,0-1.4-1.4-1.4c-2.8-0.1-5.5-0.6-7.8-2.3c-3.1-2.2-4.2-5.3-3.6-8.9c0.7-3.7,2.8-6.5,5.5-9
			c0.5-0.4,0.9-0.9,1.5-1.2c1.4,1.5,37.3-18.5,37-19.2c0.7,0,1.3,0,2,0c0.5,0.4,1.2,0.2,1.8,0.3c0.9,0.2,1.6,0.9,2.5,0.6
			c0.3,0.6,1,0.7,1.5,1c0.6,0.4,1.3,0.8,1.8,1.3c0.4,0.4,0.8,0.6,1.3,0.3c1.9-1,4-1.3,6-1.7c1.7,0.1,3.4,0.3,5,0.4
			c2,0.6,3.9,1.4,5.7,2.5C153.9,145.7,154.2,146.2,154.9,146.2z M88.4,160.5C88.5,160.5,88.5,160.5,88.4,160.5
			C88.5,160.4,88.5,160.4,88.4,160.5C88.5,160.4,88.5,160.4,88.4,160.5z"/>
		<path class="st3" d="M218.6,131.7c-0.5-1.1-34.7-16.3-34.8-15c-1.6-0.8-7.8-3.7-9.3-4.5c-0.5-0.2-1-0.4-1.3-0.9
			c-0.1-0.3-0.3-0.7-0.6-1c-1-1.3-2-2.6-2.7-4.1c-0.1-1.8,0-3.6,0.6-5.3c0.5,0.1,9.8-27.1,9.3-27.4c3.6-2.1,7.2-2.6,11-0.5
			c0.5,0.3,0.6,0.1,0.9-0.2c1.8-2.6,4-4.8,6.8-6.5c2.7-1.6,5.6-2.7,8.8-2.4c4,0.3,7,3.1,7.9,7.2c0.5,2.1,0.5,4.2,0.1,6.3
			c-0.1,0.6,0.1,0.9,0.7,1c6.3,1,10.6,5.9,11.6,11.9c0.7,4.1,0.2,8-1.2,11.8c-0.7,2-1.7,3.9-2.9,5.7c-0.4,0.5-0.4,0.9-0.1,1.5
			c3.5,5.6,3.4,11.2,0.2,16.9C222.4,128.5,220.7,130.3,218.6,131.7z"/>
		<path class="st2" d="M125.7,140.6c0.3,0.7,1,1.2,1.5,1.6c2,1.8,2.4,3.9,1.8,6.4c-0.1,0.4-0.1,0.7,0.4,1c1.4,0.9,2.9,1.9,4,3.2
			c1.9,2.1,3.5,5.5,1.6,8.5c-1.3,2-3.4,2.6-5.6,2.8c-1.3,0.1-1.4,0-1.4,1.3c0,3.2-3.3,6.6-6.2,7.4c-3,0.8-6,0.7-8.9-0.2
			c-0.6-0.2-1.3-0.5-1.9-0.8c-0.4-0.2-0.7,0-1,0.2c-1.2,1.1-2.6,1.6-4.1,2.1c-2.5,0.8-4.7,0-6.8-0.9c-1.6-0.8-3-2.1-3.9-3.7
			c-1-1.8-1.5-3.7-1.3-5.7c0-0.3,0-0.6-0.3-0.6c-2.1-0.4-3.5-1.9-4.8-3.3c-0.9-1.5-1.6-3-2-4.8c-1.2-6.1,2.9-12.6,8.9-14.1
			c1.7-0.4,3.3-0.4,5,0c0.7,0.2,1.3,0.2,1.9-0.1c0.5-0.2,1.2-0.3,1.7-0.5c0.5,0.1,1,0,1.4-0.2c3.1-1.2,6.1-0.7,9,0.7
			c0.4,0.2,0.8,0.3,1.1-0.2c2.4-1.5,4.9-1.8,7.5-0.9C124.2,139.9,124.9,140.5,125.7,140.6z"/>
		<path class="st2" d="M179.8,73.7c0.4,0.3,0.7-0.3,1.1-0.2c3.1,0.3,5.9,1.2,7.3,4.3c0.4,0.8,0.9,1.5,0.8,2.5
			c-0.1,0.4,0.2,0.6,0.6,0.6c1.3,0,2.1,0.8,3,1.6c2.4,2.2,2.9,5.1,1.5,8.1c-0.5,1.1-1.1,2-2.1,2.6c-0.4,0.3-0.4,0.6-0.4,1.1
			c0.1,2.4-0.1,4.7-1.5,6.7c-1.6,2.3-3.6,3.4-6.4,2.9c-0.6-0.1-0.8,0.1-1,0.6c-0.6,1.3-1.2,2.5-2.7,3.2c-1.3,0.6-3.4-0.1-4.2-0.9
			c-1.4-1.3-2.2-3-2.7-4.7c-0.2-0.6-0.6-0.8-1-0.8c-0.6,0-1.1-0.2-1.7-0.3c-0.1-0.1-0.2-0.2-0.3-0.3c-1.9-1.4-2.7-3.2-2.6-5.5
			c0-1.1,0.5-2.1,0.9-3c0.4-0.4,0.7-0.8,1.2-1c0.4-0.2,0.4-0.6,0.3-1c-0.7-2.5,0-4.6,1.7-6.5c0.4-0.4,1-0.7,1.1-1.4
			c-0.2-3.8,1.5-6.4,4.9-8C178.4,73.9,179.1,73.7,179.8,73.7z"/>
		<path class="st0" d="M145.8,73.4c-0.1,0-0.2,0.1-0.2,0c-3.3-1.8-6.6-3.5-9.6-5.7c-3.4-2.4-6.8-4.9-9.9-7.6L126,60
			c1.9,0.6,3.5,1.7,5.2,2.6c3.6,2,7,4.3,10.2,6.9C142.9,70.8,144.4,72,145.8,73.4z"/>
		<path class="st0" d="M87.3,87.1c0.8,0.5,1.3,1.3,1.6,2.3C88.3,88.6,87.8,87.9,87.3,87.1z"/>
		<path class="st0" d="M100.4,114.1c0.2,0.1,0.3,0.3,0.2,0.5C100.5,114.4,100.4,114.3,100.4,114.1z"/>
		<path class="st0" d="M125.9,60.1c-0.2,0-0.2-0.1-0.3-0.2C125.8,59.9,125.8,59.9,125.9,60.1z"/>
		<path class="st0" d="M132,141.6c-0.9,0.3-1.7-0.5-2.5-0.6c-0.6-0.1-1.3,0.1-1.8-0.3c-0.8-1-1.7-2.1-2.5-3.2
			c-0.5-0.7-1.2-1.3-2-1.8c-1.9-1.2-3.8-2.5-5.6-3.9c-1.8-1.4-3.6-2.9-5.3-4.4c-0.3-1.4-0.5-2.9-0.9-4.3c-1-3.2-1.9-6.5-2.9-9.7
			c-0.7-2-1.2-4.1-1.8-6.2c-0.6-2.1-1.4-4.1-2.1-6.2c-0.7-1.9-1.4-3.9-2.1-5.8c-0.6-1.7-1.2-3.5-1.9-5.2c-0.6-1.3-0.9-2.7-1.6-4
			c-0.1-0.2-0.2-0.4,0-0.6s0.3,0.1,0.4,0.2c1.5,0.8,2.8,1.8,4.1,2.9c2.5,2.1,4.5,4.6,6.6,7.1c2.1,2.6,4.2,5.3,5.9,8.2
			c1.5,2.6,3.2,5.1,4.8,7.7c1.5,2.4,2.8,4.8,3.9,7.3c1.6,3.4,3,7,4,10.6c1.2,3.9,1.8,8,3.1,11.9C132,141.3,132,141.5,132,141.6z"/>
		<path class="st2" d="M88.4,160.5C88.5,160.4,88.5,160.4,88.4,160.5C88.5,160.4,88.5,160.5,88.4,160.5
			C88.5,160.5,88.5,160.5,88.4,160.5z"/>
		<path class="st4" d="M183.8,116.7c0.1-1.3,0.1-2.6,0.5-3.8c1.1-4.1,3.8-6.8,7.7-8.3c3.1-1.1,6.3-1.1,9.3,0.1
			c2.2,0.9,4,2.2,5.4,4.2c1.2,1.7,1.7,3.5,2,5.5c0,0.2,0.1,0.4,0,0.6c-0.2,0.5,0,0.9,0.5,1c2.1,0.5,3.7,1.7,5,3.2
			c1.1,1.2,1.8,2.7,2.1,4.3c0.3,1.7,0.1,3.4,0.2,5c-0.4,0.3-0.3,0.8-0.5,1.2c-0.9,2.1-2.4,3.8-4.3,5.1c-1.1,0.7-1.1,0.8-1.1,2.4
			c0.2,3.1-0.7,5.8-2.3,8.5c-1.6,2.6-3.8,4.2-6.8,4.8c-1.6,0.3-3.2,0.1-4.6-0.6c-0.7-0.3-1-0.2-1.1,0.7c-0.3,2.7-2,4.2-4.3,5.1
			c-1,0.4-2.3,0.4-3.3,0c-1.1-0.5-2.2-1.2-3.1-2.2c-1.2-1.4-1.8-3-2.6-4.6c-0.4-0.9-0.7-2-0.7-3c0-0.6-0.3-0.7-0.8-0.7
			c-1.7-0.1-3.2-0.8-4.5-2.1c-0.7-0.7-0.9-1.7-1.4-2.5c-1.3-2.1-1.3-4.4-0.7-6.6c0.5-2,1.5-3.8,3.4-4.8c0.3-0.1,0.5-0.3,0.5-0.6
			c0-0.2,0.1-0.4,0.1-0.6c-0.1-1.4-0.1-2.8,0.3-4.2c0.5-2.2,1.5-4,3.2-5.5C182.5,117.6,183.4,117.5,183.8,116.7z"/>
		<path class="st5" d="M117.7,51.3c-0.1,0.1-0.3,0.2-0.3,0.3c-0.4,1.9-1.6,3.5-2.6,5c-1.2,1.7-2.6,3.2-4,4.8
			c-2.4,2.8-5.2,5.1-7.9,7.5c-1.9,1.7-3.9,3.2-5.9,4.8c-1.5,1.1-3,2.2-4.6,3.2c-1.7,1.1-3.4,2.2-5.2,3c-1.6,0.7-3.1,1.3-4.9,1.2
			c-1.1-1.5-1.1-2.4-0.1-4.1c1.5-2.6,3.4-4.9,5.4-7.1c1.1-1.2,2.1-2.5,3.3-3.5c1.7-1.5,3.3-3.1,5.1-4.6c1.6-1.3,3.3-2.6,5-4
			c1-0.8,2.1-1.3,2.9-2.2c0.2-0.2,0.5-0.3,0.8-0.5c0.6-0.3,1.2-0.6,1.6-1.2c0.1-0.1,0.2-0.2,0.3-0.2c2.2-1.1,4.3-2.6,6.7-3.4
			c0.8-0.3,1.7-0.3,2.5-0.5c0.3-0.1,0.6,0.1,0.8,0.3C117.1,50.5,117.5,50.8,117.7,51.3z"/>
	</g>
</g>
</svg>
