<svg id="圖層_1" data-name="圖層 1" xmlns="http://www.w3.org/2000/svg" viewBox="0 0 649.96 415.14"><defs><style>.cls-1{fill:#f7d1a4;}.cls-2{fill:#c1a080;}.cls-3{fill:#ddbc9e;}</style></defs><path id="Path_1250" data-name="Path 1250" class="cls-1" d="M596.82-.19H53.35L.1,60.46V354.29L53.35,415H596.82l53.24-60.66V60.46Z" transform="translate(-0.1 0.19)"/><path id="Path_1251" data-name="Path 1251" class="cls-2" d="M588.3,11.27H64.24L12.89,68.57V346.18l51.35,57.31H588.3l51.35-57.31V68.57Z" transform="translate(-0.1 0.19)"/><rect id="Rectangle_205" data-name="Rectangle 205" class="cls-2" x="422.39" y="11.46" width="6.53" height="164.44"/><rect id="Rectangle_206" data-name="Rectangle 206" class="cls-2" x="220.89" y="11.46" width="6.53" height="164.44"/><rect id="Rectangle_207" data-name="Rectangle 207" class="cls-2" x="44.78" y="183.31" width="562.73" height="7.41"/><rect id="Rectangle_208" data-name="Rectangle 208" class="cls-1" x="9.49" y="175.89" width="638.36" height="7.41"/><rect id="Rectangle_209" data-name="Rectangle 209" class="cls-1" x="429.13" width="6.76" height="180.61"/><rect id="Rectangle_210" data-name="Rectangle 210" class="cls-1" x="214.57" width="6.53" height="182.63"/><polygon class="cls-3" points="43.09 190.72 43.09 332.06 89.15 383.46 561.19 383.46 607.24 332.06 607.24 190.72 43.09 190.72"/><polygon class="cls-3" points="436.1 31.68 561.51 31.68 607.57 83.08 607.57 175.89 436.1 175.89 436.1 31.68"/><polygon class="cls-3" points="214.57 31.68 89.15 31.68 43.09 83.08 43.09 175.89 214.57 175.89 214.57 31.68"/><rect class="cls-3" x="227.9" y="31.18" width="194" height="144.22"/></svg>