<svg xmlns="http://www.w3.org/2000/svg" width="161.685" height="69.871" viewBox="0 0 161.685 69.871">
  <g id="Group_128" data-name="Group 128" transform="translate(-100.212 -50.707)">
    <path id="Path_251" data-name="Path 251" d="M38.248-53.845l.339.17q.339.17.735.4a4.143,4.143,0,0,0,.735.339q1.583.9,1.639.961a10.343,10.343,0,0,1-1.074,1.752l-1.13,1.809a7.252,7.252,0,0,0,1.017,1.244q1.357,1.47,3.391,3.731a22.3,22.3,0,0,0,3.618,3.391l2.6,1.809,1.244.9v3.448a4.266,4.266,0,0,1-.057.791l-.057.283q-.113,0-2.939-2.148Q46.161-36.549,45.653-37a11.592,11.592,0,0,1-1.413-1.7q-1.244-1.7-3.391-4.861-2.148-3.278-2.261-3.391A43.553,43.553,0,0,0,36.1-42.992l-2.487,3.844-3.844,3.957q-3.844,3.957-3.957,3.957t-.339-.452a1.335,1.335,0,0,1,.339-1.074q.452-.622,2.713-3.561a35.405,35.405,0,0,0,2.826-4.3q.452-1.017,3.618-7.348Q37.909-53.845,38.248-53.845ZM20.5-53.958v11.3h4.409v2.148H20.5v10.627l.791-.452q.678-.339,1.809-1.017a8.19,8.19,0,0,1,1.244-.565q.113,0,.113,1.583v1.583l-2.035,1.017L20.5-26.713v7.687a71.615,71.615,0,0,1-.226,8.366,8.5,8.5,0,0,1-.565,1.47,7.427,7.427,0,0,1-1.017,1.47,7.837,7.837,0,0,1-1.583,1.074,10.174,10.174,0,0,1-1.13.509l-.339.113v-9.044q0-8.931-.113-8.931a24.931,24.931,0,0,0-2.261,1.13A24.932,24.932,0,0,1,11-21.739v-1.47l-.113-1.583,2.374-1.244,2.261-1.244.113-6.557v-6.67H12.925l-2.713-.113v-2.035h5.426v-11.3H20.5Zm13,26.906.113.9v.9H43.674v-.9l.113-.791h4.748v8.026q0,3.278-.057,5.031t-.057,2.6a4.253,4.253,0,0,1-.113,1.187,3.757,3.757,0,0,1-.452,1.47,4.061,4.061,0,0,1-.791,1.187,3.69,3.69,0,0,1-1.187.9,3.379,3.379,0,0,1-1.413.283h-.678v-4.522l-5.2.113H33.5l-.113.565a7.1,7.1,0,0,1-.452,1.357,4.277,4.277,0,0,1-.9,1.357,4.3,4.3,0,0,1-1.13.791,4.268,4.268,0,0,1-1.357.226h-.791V-27.052H33.5ZM38.7-23.1q-4.974,0-5.031.057T33.613-17.9v4.974H43.787l-.113-5.087v-4.974Zm8.139-9.5H31.465V-34.74H46.84Z" transform="translate(90 115.589)" fill="#66ab8c"/>
    <path id="Path_250" data-name="Path 250" d="M22.552-55.338l.113,1.47v1.47h7.009v2.148H22.665l-.226,1.13a10.731,10.731,0,0,1-.452,1.583l-.339.678h2.713l.452-.678q.452-.791.565-.791t1.7.339q1.583.339,1.7.4t-.848,1.752A31.056,31.056,0,0,1,26.057-42.9q-.9,1.244-2.035,2.713-1.13,1.357-2.374,2.713a30.474,30.474,0,0,1-2.713,2.6,18.42,18.42,0,0,1-2.487,1.922A17.945,17.945,0,0,1,14.187-31.6q-1.017.565-2.035,1.017-.9.339-2.035.678a14.3,14.3,0,0,1-2.035.339,4.456,4.456,0,0,1-1.187.17q-.057-.057.057-.509t1.244-.9a10.5,10.5,0,0,0,2.261-1.13,13.958,13.958,0,0,0,2.487-1.583q1.13-.9,2.826-2.374,1.583-1.357,1.583-1.583a4.917,4.917,0,0,0-.678-1.017,11.51,11.51,0,0,1-1.244-2.148L14.752-42l.339-.452q.339-.452.452-.452t.791.678A17.147,17.147,0,0,0,18.143-40.7q1.13.848,1.3.791a6.275,6.275,0,0,0,1.074-1.3,20.217,20.217,0,0,0,1.7-2.374L23-44.6H15.2l-.565,1.017q-.565.9-1.47,2.148a15.4,15.4,0,0,1-1.922,2.261A15.2,15.2,0,0,1,9.212-37.25l-1.017.791v-.791a4.558,4.558,0,0,1,.678-2.035,17.945,17.945,0,0,0,1.357-2.261q.452-.9,1.357-3.165a34.947,34.947,0,0,0,1.357-3.957l.565-1.922h2.148q2.148,0,2.148.17a11.947,11.947,0,0,1-.678,1.752l-.678,1.7,1.357.113h1.47v-4.07a32.613,32.613,0,0,1,.113-4.3q0-.113,1.583-.113Zm24.192,2.261q2.148,0,2.148.17a2.975,2.975,0,0,1-.339.848,14.78,14.78,0,0,1-.791,1.809q-.565,1.017-1.244,2.035a9.445,9.445,0,0,1-1.13,1.809q-.565.678-1.357,1.583l-.678.678,1.017.791a23.374,23.374,0,0,1,2.148,1.922,14.407,14.407,0,0,1,1.809,2.148l.678,1.017-1.357.678a10.108,10.108,0,0,1-1.47.9l-1.244-1.357a24.527,24.527,0,0,0-2.6-2.657A8.445,8.445,0,0,0,40.7-42a5.08,5.08,0,0,0-1.187.565,15.7,15.7,0,0,1-2.261,1.017,15.438,15.438,0,0,1-2.035.791l-.791.226-.678-.339a3.151,3.151,0,0,1-.678-.509,2.5,2.5,0,0,1,.678-.4l1.583-.791q.791-.565,1.922-1.357a4.76,4.76,0,0,0,1.13-.9q0-.113-.9-.678-1.017-.565-2.035-1.017a8.817,8.817,0,0,0-1.809-.791q-.565-.226-.622-.509a.676.676,0,0,1,0-.4q.057-.113,1.187-.113a12.737,12.737,0,0,1,2.261.226,16.362,16.362,0,0,1,2.374.678,14.508,14.508,0,0,0,1.47.452q.113.113.735-.678t1.413-2.035a6.622,6.622,0,0,0,.791-1.413,28.776,28.776,0,0,0-5.087-.17H33.179V-52.4H44.257l.113-.339.113-.339ZM32.613-41.885l-.452.678q-.113.226-.339.622a2.812,2.812,0,0,1-.339.509.48.48,0,0,0,0,.452q.226.113,4.07,2.487,3.5,2.035,5.087,3.052a27.312,27.312,0,0,0,2.939,1.7,37.07,37.07,0,0,0,3.731,1.583q2.035.791,4.409,1.583,2.035.678,2.261.791,0,.113-.452.452l-.339.339-1.244-.226q-1.13-.113-3.278-.565l-4.3-1.13q-2.487-.791-2.6-.791l-.057.113a1.4,1.4,0,0,0-.057.509v3.222q0,3.844-.113,5.2a11.133,11.133,0,0,1-.339,1.922,4,4,0,0,1-.678,1.244,3.392,3.392,0,0,1-.735.735,1.61,1.61,0,0,1-.961.283h-.678v-1.017H30.8q-7.461,0-7.461.057A20.257,20.257,0,0,0,25.265-16.9q1.922,1.357,3.278,2.148,1.7.9,2.939,1.47,1.47.565,2.148.9l.678.226L35.1-13.4q.452-.565,1.47-2.148.678-1.017.791-1.017A12.631,12.631,0,0,1,39-15.6a13.732,13.732,0,0,1,1.526,1.017q0,.057-1.13,1.526-1.017,1.244-1.357,1.7-.113.339.057.4t1.865.4a11.121,11.121,0,0,0,1.752.339q.961.113,1.639.226l1.583.113.057.283.17.848q.113.565.226,1.017a8.592,8.592,0,0,1,.226,2.317q-.113.17-.961.17a11.129,11.129,0,0,1-2.035-.226q-1.187-.226-2.77-.678a18.926,18.926,0,0,1-3.278-1.13A30.8,30.8,0,0,1,33.4-8.762q-1.357-.678-2.77-1.47T27.752-12.04q-1.583-1.13-2.487-1.809-1.13-.9-1.922-1.583l-.9-.9V-13.4a25.193,25.193,0,0,1-.17,3.844,8.578,8.578,0,0,1-.509,1.583,8.134,8.134,0,0,1-1.017,1.244,3.681,3.681,0,0,1-1.244.735,3.917,3.917,0,0,1-1.13.17h-.678V-16.11q0-10.287-.226-10.287-.113,0-1.7.565a28.234,28.234,0,0,1-3.278,1.017,22.941,22.941,0,0,1-2.826.565,9.526,9.526,0,0,1-1.583.226,11.994,11.994,0,0,1-1.357-.113l-.791-.113L7.517-24.7q1.583-.452,2.826-.9,1.13-.452,2.826-1.244,1.47-.791,2.826-1.583,1.017-.678,2.374-1.7a23.372,23.372,0,0,0,2.148-1.922A34.616,34.616,0,0,0,23-34.876a30.993,30.993,0,0,0,2.713-4.3l1.357-2.6h1.017q.113,0,2.826-.113Zm-3.052,5.652a.886.886,0,0,0-.226-.17q-.113-.057-.113,0a6.683,6.683,0,0,0,1.017.735q1.017.791,1.809,1.47a7.656,7.656,0,0,1,1.47,1.7,6.818,6.818,0,0,1,.791,1.357,4.418,4.418,0,0,1,.339.9v.339l1.7.113h1.7l.113-.339q.113-.339,1.7-.339h1.583l-1.583-.678A29.075,29.075,0,0,1,36.8-32.389q-1.13-.565-3.957-2.148Q30.126-36.007,29.561-36.233Zm.678,4.635a17.018,17.018,0,0,0-.961-2.431,4.216,4.216,0,0,1-.565-1.583q.057-.283,0-.283t-.4.565a16.086,16.086,0,0,1-1.583,2.261q-1.357,1.7-2.035,2.374a6.854,6.854,0,0,0-.791.848q0,.057,3.278.057h3.391v-.339A6.891,6.891,0,0,0,30.239-31.6Zm-7.8,6.557H38.153v-2.6H22.439Zm0,4.635H38.153V-22.78H22.439Z" transform="translate(207.918 115.838)" fill="#f48145"/>
    <g id="Group_73" data-name="Group 73" transform="translate(156.921 50.707)">
      <g id="Group_67" data-name="Group 67" transform="translate(6.435 26.234)">
        <path id="Path_218" data-name="Path 218" d="M656.488,703.513a4.117,4.117,0,0,1-4.116-4.214l.906-38.437a1.011,1.011,0,0,1,2.021.047l-.906,38.437a2.1,2.1,0,1,0,4.191,0l-.906-38.437a1.011,1.011,0,0,1,2.021-.047L660.6,699.3a4.117,4.117,0,0,1-4.116,4.214Z" transform="translate(-652.371 -659.875)" fill="#f6bd60"/>
      </g>
      <g id="Group_68" data-name="Group 68" transform="translate(31.879 25.142)">
        <path id="Path_219" data-name="Path 219" d="M732.023,701.363a4.117,4.117,0,0,1-4.116-4.214l.932-39.529a1.011,1.011,0,0,1,1.01-.987h.024a1.01,1.01,0,0,1,.986,1.034l-.932,39.529a2.1,2.1,0,1,0,4.191,0l-.932-39.529a1.01,1.01,0,0,1,.986-1.034h.025a1.01,1.01,0,0,1,1.01.987l.932,39.529a4.117,4.117,0,0,1-4.116,4.214Z" transform="translate(-727.906 -656.634)" fill="#f6bd60"/>
      </g>
      <g id="Group_69" data-name="Group 69" transform="translate(0 0.986)">
        <path id="Path_220" data-name="Path 220" d="M646.019,612.192a1.011,1.011,0,0,1-.3-1.974c3.845-1.216,6.636-6.047,6.636-11.488,0-6.5-3.827-11.785-8.531-11.785s-8.531,5.287-8.531,11.785c0,5.441,2.791,10.273,6.635,11.488a1.01,1.01,0,0,1-.609,1.927c-4.738-1.5-8.047-7.014-8.047-13.415,0-7.613,4.734-13.806,10.552-13.806s10.552,6.194,10.552,13.806c0,6.4-3.309,11.917-8.047,13.415A1.014,1.014,0,0,1,646.019,612.192Z" transform="translate(-633.267 -584.923)" fill="#f6bd60"/>
      </g>
      <g id="Group_70" data-name="Group 70" transform="translate(27.034 0)">
        <path id="Path_221" data-name="Path 221" d="M722.485,609.46a8.972,8.972,0,0,1-8.962-8.962V583.005a1.011,1.011,0,0,1,2.021,0V600.5a6.941,6.941,0,1,0,13.881,0V583.005a1.011,1.011,0,0,1,2.021,0V600.5A8.972,8.972,0,0,1,722.485,609.46Z" transform="translate(-713.523 -581.995)" fill="#f6bd60"/>
      </g>
      <g id="Group_71" data-name="Group 71" transform="translate(32.335 0)">
        <path id="Path_222" data-name="Path 222" d="M730.271,603.629a1.01,1.01,0,0,1-1.01-1.01V583.005a1.011,1.011,0,0,1,2.021,0v19.613A1.01,1.01,0,0,1,730.271,603.629Z" transform="translate(-729.26 -581.995)" fill="#f6bd60"/>
      </g>
      <g id="Group_72" data-name="Group 72" transform="translate(37.636 0)">
        <path id="Path_223" data-name="Path 223" d="M746.007,603.629a1.01,1.01,0,0,1-1.01-1.01V583.005a1.011,1.011,0,0,1,2.021,0v19.613A1.011,1.011,0,0,1,746.007,603.629Z" transform="translate(-744.997 -581.995)" fill="#f6bd60"/>
      </g>
    </g>
  </g>
</svg>
