<svg xmlns="http://www.w3.org/2000/svg" width="13.157" height="7.619" viewBox="0 0 13.157 7.619">
  <path id="Path_800" data-name="Path 800" d="M-163.145,228.625c.073.5-.759,1.064-1.062,1.372q-.865.878-1.732,1.756c-1.129,1.14-2.266,2.273-3.43,3.378-.473.449-.964-.136-1.328-.5q-2.482-2.453-4.936-4.932c-.469-.475-1.041-.989-.328-1.7s1.226-.093,1.7.361c1.187,1.147,2.324,2.337,3.494,3.507,1.028,1.028,1.136,1.014,2.134.016,1.188-1.188,2.411-2.467,3.647-3.671.311-.3.692-.686,1.172-.382A1.9,1.9,0,0,1-163.145,228.625Z" transform="translate(176.298 -227.675)" fill="#fff"/>
</svg>
