<?xml version="1.0" encoding="utf-8"?>
<!-- Generator: Adobe Illustrator 24.3.0, SVG Export Plug-In . SVG Version: 6.00 Build 0)  -->
<svg version="1.1" id="圖層_1" xmlns="http://www.w3.org/2000/svg" xmlns:xlink="http://www.w3.org/1999/xlink" x="0px" y="0px"
	 viewBox="0 0 2865.3 10.9" style="enable-background:new 0 0 2865.3 10.9;" xml:space="preserve">
<style type="text/css">
	.st0{fill:none;stroke:#DECDBB;stroke-width:2;stroke-miterlimit:10;}
</style>
<g>
	<g id="Group_261" transform="translate(0 1)">
		<path id="Path_799" class="st0" d="M1,0.5c7.4,0,7.4,8,14.8,8s7.4-8,14.8-8s7.4,8,14.8,8s7.4-8,14.8-8s7.4,8,14.8,8s7.4-8,14.8-8
			s7.4,8,14.8,8s7.4-8,14.8-8s7.4,8,14.8,8s7.4-8,14.8-8s7.4,8,14.8,8s7.4-8,14.8-8s7.4,8,14.8,8s7.4-8,14.8-8s7.4,8,14.8,8
			s7.4-8,14.8-8c7.4,0,7.4,8,14.8,8s7.4-8,14.8-8s7.4,8,14.8,8s7.4-8,14.8-8s7.4,8,14.8,8s7.4-8,14.8-8s7.4,8,14.8,8s7.4-8,14.8-8
			s7.4,8,14.8,8s7.4-8,14.8-8s7.4,8,14.8,8s7.4-8,14.8-8s7.4,8,14.8,8s7.4-8,14.8-8s7.4,8,14.8,8s7.4-8,14.8-8s7.4,8,14.8,8
			s7.4-8,14.8-8s7.4,8,14.8,8s7.4-8,14.8-8s7.4,8,14.8,8s7.4-8,14.8-8s7.4,8,14.8,8s7.4-8,14.8-8s7.4,8,14.8,8s7.4-8,14.8-8
			s7.4,8,14.8,8s7.4-8,14.8-8s7.4,8,14.8,8s7.4-8,14.8-8s7.4,8,14.8,8s7.4-8,14.8-8s7.4,8,14.8,8s7.4-8,14.8-8s7.4,8,14.8,8
			s7.4-8,14.8-8s7.4,8,14.8,8s7.4-8,14.8-8s7.4,8,14.8,8s7.4-8,14.8-8s7.4,8,14.8,8s7.4-8,14.8-8s7.4,8,14.8,8s7.4-8,14.8-8
			s7.4,8,14.8,8s7.4-8,14.8-8s7.4,8,14.8,8s7.4-8,14.8-8s7.4,8,14.8,8s7.4-8,14.8-8s7.4,8,14.8,8s7.4-8,14.8-8s7.4,8,14.8,8
			s7.4-8,14.8-8s7.4,8,14.8,8s7.4-8,14.8-8s7.4,8,14.8,8s7.4-8,14.8-8s7.4,8,14.8,8s7.4-8,14.8-8s7.4,8,14.8,8s7.4-8,14.8-8
			s7.4,8,14.8,8s7.4-8,14.8-8s7.4,8,14.8,8s7.4-8,14.8-8s7.4,8,14.8,8s7.4-8,14.8-8s7.4,8,14.8,8s7.4-8,14.8-8s7.4,8,14.8,8
			s7.4-8,14.8-8s7.4,8,14.8,8s7.4-8,14.8-8s7.4,8,14.8,8s7.4-8,14.8-8s7.4,8,14.8,8s7.4-8,14.8-8s7.4,8,14.8,8s7.4-8,14.8-8
			s7.4,8,14.8,8"/>
	</g>
	<g id="Group_261_1_" transform="translate(0 1)">
		<path id="Path_799_1_" class="st0" d="M1425,0.5c7.4,0,7.4,8,14.8,8s7.4-8,14.8-8s7.4,8,14.8,8s7.4-8,14.8-8s7.4,8,14.8,8
			s7.4-8,14.8-8c7.4,0,7.4,8,14.8,8s7.4-8,14.8-8s7.4,8,14.8,8c7.4,0,7.4-8,14.8-8s7.4,8,14.8,8s7.4-8,14.8-8s7.4,8,14.8,8
			s7.4-8,14.8-8c7.4,0,7.4,8,14.8,8s7.4-8,14.8-8s7.4,8,14.8,8s7.4-8,14.8-8s7.4,8,14.8,8c7.4,0,7.4-8,14.8-8s7.4,8,14.8,8
			s7.4-8,14.8-8s7.4,8,14.8,8c7.4,0,7.4-8,14.8-8c7.4,0,7.4,8,14.8,8s7.4-8,14.8-8s7.4,8,14.8,8s7.4-8,14.8-8s7.4,8,14.8,8
			s7.4-8,14.8-8s7.4,8,14.8,8c7.4,0,7.4-8,14.8-8s7.4,8,14.8,8s7.4-8,14.8-8s7.4,8,14.8,8s7.4-8,14.8-8s7.4,8,14.8,8
			c7.4,0,7.4-8,14.8-8s7.4,8,14.8,8s7.4-8,14.8-8c7.4,0,7.4,8,14.8,8s7.4-8,14.8-8c7.4,0,7.4,8,14.8,8s7.4-8,14.8-8s7.4,8,14.8,8
			s7.4-8,14.8-8s7.4,8,14.8,8c7.4,0,7.4-8,14.8-8s7.4,8,14.8,8s7.4-8,14.8-8s7.4,8,14.8,8s7.4-8,14.8-8s7.4,8,14.8,8
			c7.4,0,7.4-8,14.8-8s7.4,8,14.8,8c7.4,0,7.4-8,14.8-8s7.4,8,14.8,8s7.4-8,14.8-8s7.4,8,14.8,8s7.4-8,14.8-8s7.4,8,14.8,8
			c7.4,0,7.4-8,14.8-8c7.4,0,7.4,8,14.8,8c7.4,0,7.4-8,14.8-8s7.4,8,14.8,8s7.4-8,14.8-8s7.4,8,14.8,8s7.4-8,14.8-8s7.4,8,14.8,8
			s7.4-8,14.8-8c7.4,0,7.4,8,14.8,8s7.4-8,14.8-8s7.4,8,14.8,8s7.4-8,14.8-8s7.4,8,14.8,8c7.4,0,7.4-8,14.8-8s7.4,8,14.8,8
			c7.4,0,7.4-8,14.8-8s7.4,8,14.8,8c7.4,0,7.4-8,14.8-8s7.4,8,14.8,8c7.4,0,7.4-8,14.8-8s7.4,8,14.8,8c7.4,0,7.4-8,14.8-8
			s7.4,8,14.8,8c7.4,0,7.4-8,14.8-8s7.4,8,14.8,8s7.4-8,14.8-8s7.4,8,14.8,8s7.4-8,14.8-8c7.4,0,7.4,8,14.8,8s7.4-8,14.8-8
			s7.4,8,14.8,8s7.4-8,14.8-8s7.4,8,14.8,8s7.4-8,14.8-8s7.4,8,14.8,8"/>
	</g>
</g>
</svg>
