<svg xmlns="http://www.w3.org/2000/svg" width="117.278" height="151.391" viewBox="0 0 117.278 151.391">
  <g id="Group_5589" data-name="Group 5589" transform="translate(-319.454 -646.796)">
    <g id="Group_5583" data-name="Group 5583" transform="translate(335.703 646.796)">
      <path id="Path_6301" data-name="Path 6301" d="M359.2,715.944c-1.4-8.235-2.806-16.469-4.167-24.711a2.657,2.657,0,0,0-1.451-2.1c-4.227-2.473-6.7-6.385-8.346-10.843-2.468-6.675-3.188-13.5-.915-20.366a17.812,17.812,0,0,1,2.8-5.266c3.3-4.232,8.128-4.812,12.509-1.713a20.791,20.791,0,0,1,7.373,10.262c2.535,6.952,3.256,14.035.633,21.13a18.587,18.587,0,0,1-2.894,4.843,2.956,2.956,0,0,0-.681,2.618q4.154,24.3,8.239,48.613a9.438,9.438,0,0,1,.13,2.577,4.316,4.316,0,0,1-3.864,3.794,4.779,4.779,0,0,1-4.883-3.029,13.4,13.4,0,0,1-.416-1.9q-2.033-11.952-4.054-23.9Z" transform="translate(-342.943 -647.47)" fill="#eb9c22"/>
      <path id="Path_6302" data-name="Path 6302" d="M426.97,685.211c-1.1-.237-1.987-.421-2.874-.622-2.645-.6-3.514-1.935-2.945-4.579q3.233-15.034,6.483-30.063c.091-.425.165-.854.279-1.271.4-1.45,1.345-2.1,2.6-1.812,1.273.295,1.79,1.229,1.464,2.751-1.248,5.834-2.519,11.664-3.765,17.5-.351,1.642.187,2.619,1.6,3.049,1.774.538,2.757-.1,3.2-2.138,1.248-5.724,2.47-11.453,3.717-17.177.376-1.725,1.441-2.442,2.881-1.934,1.412.5,1.593,1.55,1.3,2.887q-1.877,8.5-3.678,17.018c-.378,1.774.143,2.836,1.526,3.27,1.716.538,2.731,0,3.121-1.77,1.26-5.721,2.479-11.451,3.734-17.172.125-.569.241-1.327.638-1.606a3.345,3.345,0,0,1,2.254-.731c.6.127,1.207.982,1.48,1.65a3.6,3.6,0,0,1-.148,1.9q-3.207,14.956-6.446,29.9c-.753,3.484-1.742,4.111-5.245,3.359l-2.063-.445-.477,2.214q-5.355,24.813-10.724,49.623a9.228,9.228,0,0,1-.967,2.732,4.542,4.542,0,0,1-5.28,1.8,4.651,4.651,0,0,1-3.1-5.264c1.047-5.045,2.157-10.077,3.244-15.114q3.9-18.053,7.791-36.106C426.683,686.539,426.8,686.013,426.97,685.211Z" transform="translate(-365.289 -646.796)" fill="#eb9c22"/>
    </g>
    <g id="Group_5584" data-name="Group 5584" transform="translate(335.703 647.553)">
      <path id="Path_6303" data-name="Path 6303" d="M359.2,717.038c-1.4-8.235-2.806-16.469-4.167-24.71a2.657,2.657,0,0,0-1.451-2.1c-4.227-2.473-6.7-6.386-8.346-10.843-2.468-6.676-3.188-13.5-.915-20.366a17.816,17.816,0,0,1,2.8-5.267c3.3-4.232,8.128-4.812,12.509-1.713a20.789,20.789,0,0,1,7.373,10.262c2.535,6.951,3.256,14.035.633,21.129a18.572,18.572,0,0,1-2.894,4.843,2.957,2.957,0,0,0-.681,2.618q4.154,24.3,8.239,48.612a9.444,9.444,0,0,1,.13,2.578,4.318,4.318,0,0,1-3.864,3.794,4.781,4.781,0,0,1-4.883-3.029,13.372,13.372,0,0,1-.416-1.9q-2.033-11.951-4.054-23.9Z" transform="translate(-342.943 -648.565)" fill="#eb9c22"/>
      <path id="Path_6304" data-name="Path 6304" d="M426.97,686.3c-1.1-.237-1.987-.421-2.874-.622-2.645-.6-3.514-1.935-2.945-4.579q3.233-15.034,6.483-30.063c.091-.424.165-.854.279-1.271.4-1.449,1.345-2.1,2.6-1.812,1.273.3,1.79,1.229,1.464,2.752-1.248,5.834-2.519,11.664-3.765,17.5-.351,1.642.187,2.619,1.6,3.049,1.774.538,2.757-.1,3.2-2.138,1.248-5.723,2.47-11.452,3.717-17.176.376-1.726,1.441-2.443,2.881-1.935,1.412.5,1.593,1.55,1.3,2.887q-1.877,8.5-3.678,17.018c-.378,1.774.143,2.836,1.526,3.27,1.716.538,2.731,0,3.121-1.77,1.26-5.72,2.479-11.45,3.734-17.172.125-.569.241-1.328.638-1.6a3.346,3.346,0,0,1,2.254-.732c.6.127,1.207.982,1.48,1.65a3.6,3.6,0,0,1-.148,1.9q-3.207,14.956-6.446,29.9c-.753,3.484-1.742,4.111-5.245,3.359l-2.063-.446-.477,2.215q-5.355,24.812-10.724,49.623a9.224,9.224,0,0,1-.967,2.732,4.541,4.541,0,0,1-5.28,1.8,4.651,4.651,0,0,1-3.1-5.265c1.047-5.045,2.157-10.077,3.244-15.114l7.791-36.106C426.683,687.634,426.8,687.107,426.97,686.3Z" transform="translate(-365.289 -647.89)" fill="#eb9c22"/>
    </g>
    <g id="Group_5588" data-name="Group 5588" transform="translate(319.454 694.553)">
      <g id="Group_5585" data-name="Group 5585" transform="translate(0 0)">
        <path id="Path_6305" data-name="Path 6305" d="M365.272,817.549c-3.444,0-6.756-1.905-10.124-5.825-1.44-1.677-2.9-2.6-4.125-2.6-1.485,0-2.833,1.374-3.7,2.527-2.891,3.83-6.331,5.772-10.223,5.772a13.109,13.109,0,0,1-3.978-.65c-5.6-1.787-8.65-6.26-8.578-12.6.042-3.573.032-7.22.022-10.746q-.006-2.307-.008-4.613c-.52-14.345.59-32.8,13.793-48.494a53.968,53.968,0,0,1,41.262-19.493c20.9,0,39.564,11.961,48.711,31.215,4.24,8.927,6.226,18.8,6.438,32.024.121,7.492.05,14.116-.217,20.248-.366,8.419-4.929,11.44-8.693,12.491a13.958,13.958,0,0,1-3.748.539c-3.9,0-7.387-1.869-10.376-5.557-1.02-1.258-2.51-2.758-3.814-2.758-1.131,0-2.72,1.115-4.472,3.136-3.137,3.618-6.314,5.377-9.712,5.377-3.451,0-6.668-1.814-9.831-5.546-1.083-1.277-2.711-2.8-4.315-2.8-1.529,0-3.079,1.392-4.11,2.56C371.984,815.71,368.744,817.548,365.272,817.549Z" transform="translate(-320.996 -717.373)" fill="#f6ece0"/>
        <path id="Path_6306" data-name="Path 6306" d="M378.068,722.75a50.236,50.236,0,0,1,45.587,29.24c4.631,9.749,5.935,20.044,6.1,30.6.107,6.678.075,13.37-.214,20.041-.181,4.167-1.493,8.005-6.168,9.311a10.425,10.425,0,0,1-2.816.412c-3.027,0-5.484-1.557-7.69-4.277s-4.326-4.038-6.5-4.038c-2.276,0-4.6,1.459-7.086,4.328-2.418,2.789-4.761,4.184-7.1,4.184-2.377,0-4.75-1.441-7.194-4.324-2.272-2.681-4.613-4.022-6.953-4.022-2.253,0-4.507,1.242-6.7,3.729-2.717,3.078-5.171,4.617-7.605,4.617s-4.853-1.54-7.5-4.62c-2.162-2.517-4.479-3.8-6.75-3.8s-4.487,1.282-6.465,3.9c-2.108,2.794-4.526,4.4-7.461,4.4a9.625,9.625,0,0,1-2.928-.487c-4.344-1.385-6.221-4.73-6.168-9.259.059-5.154.013-10.308.013-15.462-.612-16.761,1.626-32.709,12.982-46.2a50.142,50.142,0,0,1,38.614-18.261m-23.075,37c2.769,0,3.861-2.545,3.852-5.22-.008-2.585-.486-5.468-3.662-5.481h-.019c-3.023,0-2.865,2.964-3.246,5.515.787,1.666-.293,5.033,2.854,5.181.075,0,.148,0,.221,0m45.62-.119c3.172,0,3.129-3.047,3.2-5.7-.6-1.659,1.079-4.644-2.752-4.843-.126-.007-.248-.01-.365-.01-3.412,0-3.331,2.708-3.461,4.953-.142,2.452.17,5.54,3.282,5.6h.093M362.006,784.14c-2.177,0-4.315-1.466-6.5-3.654a2.446,2.446,0,0,0-1.577-.912,1.455,1.455,0,0,0-.893.338c.662,3.783,4.842,9.49,7.817,10.282a4.319,4.319,0,0,0,1.113.154c2.513,0,3.742-2.556,5.3-4.018a4.117,4.117,0,0,1,2.707-1.381c1.269,0,2.276,1.052,3.344,2.329,1.532,1.832,3.131,2.926,4.75,2.926,1.366,0,2.745-.778,4.113-2.546,1.345-1.74,2.584-2.461,3.794-2.461,1.476,0,2.907,1.074,4.433,2.68.919.967,1.971,2.651,3.343,2.651a2.148,2.148,0,0,0,1.316-.511c3.39-2.609,8.068-4.452,8.087-9.855a2.468,2.468,0,0,0-1.31-.43c-1.056,0-1.765.914-2.367,1.462-1.951,1.779-3.805,2.926-5.649,2.926-1.658,0-3.306-.927-5.01-3.155a3.553,3.553,0,0,0-2.764-1.619,3.919,3.919,0,0,0-2.964,1.734c-1.761,2.207-3.506,3.368-5.25,3.368-1.691,0-3.381-1.093-5.084-3.385a3.748,3.748,0,0,0-2.831-1.8,3.033,3.033,0,0,0-2.358,1.386c-1.913,2.469-3.754,3.487-5.567,3.487m16.064-68.308v0a56.209,56.209,0,0,0-23.559,5.13,58.065,58.065,0,0,0-20.349,15.595c-13.945,16.571-15.144,35.827-14.607,50.783q0,2.289.009,4.578c.009,3.509.019,7.136-.022,10.68-.091,7.869,3.913,13.675,10.985,15.929a16.558,16.558,0,0,0,5.029.814c3.462,0,8.525-1.24,12.983-7.147a5.483,5.483,0,0,1,1-1.063,6.2,6.2,0,0,1,1.442,1.305c4.064,4.731,8.233,7.03,12.747,7.03,4.474,0,8.658-2.276,12.792-6.957a6.252,6.252,0,0,1,1.516-1.337,6.685,6.685,0,0,1,1.677,1.525c3.807,4.49,8,6.768,12.47,6.768,4.4,0,8.546-2.211,12.325-6.57a11.02,11.02,0,0,1,1.792-1.726,9.258,9.258,0,0,1,1.2,1.261c3.679,4.537,8.074,6.837,13.063,6.837a17.4,17.4,0,0,0,4.678-.667c9.28-2.593,11.012-10.933,11.218-15.673.269-6.2.341-12.891.22-20.454-.221-13.741-2.309-24.058-6.772-33.453-9.726-20.472-29.588-33.19-51.833-33.19Z" transform="translate(-319.454 -715.832)" fill="#eb9c22"/>
      </g>
      <g id="Group_5586" data-name="Group 5586" transform="translate(75.681 31.176)">
        <path id="Path_6307" data-name="Path 6307" d="M434.684,775.025a4,4,0,0,1-2.982-1.235c-1.034-1.117-1.465-2.9-1.318-5.46l.022-.407c.106-2.066.284-5.523,4.475-5.523q.2,0,.419.01c3.727.194,3.643,2.813,3.6,4.221a4.2,4.2,0,0,0,.075,1.305,1.014,1.014,0,0,1,.062.383l-.007.3c-.067,2.552-.169,6.409-4.233,6.409Z" transform="translate(-429.319 -761.361)" fill="#eb9c22"/>
        <path id="Path_6308" data-name="Path 6308" d="M434.419,762.974c.118,0,.239,0,.365.01,3.831.2,2.151,3.184,2.752,4.843-.074,2.652-.03,5.7-3.2,5.7h-.093c-3.112-.057-3.424-3.145-3.282-5.6.13-2.245.048-4.953,3.461-4.953m0-2.075c-5.176,0-5.411,4.56-5.511,6.508l-.021.4c-.165,2.854.356,4.89,1.592,6.224A5.025,5.025,0,0,0,434.2,775.6h.131c5.074,0,5.206-5.01,5.27-7.419l.008-.3a2.077,2.077,0,0,0-.123-.766,5.4,5.4,0,0,1-.014-.918c.044-1.379.162-5.043-4.581-5.29q-.245-.013-.473-.013Z" transform="translate(-428.857 -760.899)" fill="#eb9c22"/>
      </g>
      <g id="Group_5587" data-name="Group 5587" transform="translate(30.388 31.146)">
        <path id="Path_6309" data-name="Path 6309" d="M368.994,775.131c-.089,0-.178,0-.27-.006-3.071-.144-3.316-2.7-3.463-4.23a5.426,5.426,0,0,0-.281-1.545,1.035,1.035,0,0,1-.088-.6c.053-.354.095-.715.138-1.076.262-2.247.62-5.323,4.135-5.323,3.126.012,4.705,2.2,4.719,6.515a6.951,6.951,0,0,1-1.7,4.988,4.4,4.4,0,0,1-3.195,1.273Z" transform="translate(-363.844 -761.317)" fill="#eb9c22"/>
        <path id="Path_6310" data-name="Path 6310" d="M368.7,762.93h.019c3.176.013,3.653,2.9,3.662,5.481.009,2.675-1.083,5.22-3.852,5.22-.073,0-.146,0-.221,0-3.147-.149-2.067-3.515-2.854-5.181.382-2.551.223-5.515,3.246-5.515m0-2.075c-4.438,0-4.912,4.059-5.166,6.239-.041.349-.082.7-.133,1.043a2.074,2.074,0,0,0,.176,1.194,5.854,5.854,0,0,1,.185,1.2c.143,1.49.477,4.981,4.448,5.167.108.006.214.008.318.008a5.418,5.418,0,0,0,3.93-1.578,7.964,7.964,0,0,0,2-5.724c-.021-6.22-3.126-7.539-5.729-7.549Z" transform="translate(-363.382 -760.855)" fill="#eb9c22"/>
      </g>
    </g>
  </g>
</svg>
