<svg xmlns="http://www.w3.org/2000/svg" width="1160" height="5" viewBox="0 0 1160 5">
  <g id="Group_50" data-name="Group 50" transform="translate(-420 -1169)">
    <path id="Path_35" data-name="Path 35" d="M420,1169.5c10,0,10,4,20,4s10-4,20-4,10,4,19.992,4,9.994-4,19.99-4,10,4,19.99,4,10-4,20-4,10,4,20,4,10-4,19.994-4,10,4,19.99,4,10-4,20-4,10,4,20,4,10-4,20-4,10,4,19.994,4,10-4,19.994-4,10,4,20,4,10-4,20-4,10,4,19.994,4,10-4,20-4,10,4,20,4,10-4,20-4,10,4,20,4,10-4,20-4,10,4,20,4,10-4,20-4,10,4,20,4,10-4,20-4,10,4,20,4,10-4,20-4,10,4,20,4,10-4,20-4,10,4,20,4,10-4,20-4,10,4,20,4,10-4,20-4,10,4,20,4,10-4,20-4,10,4,20,4,10-4,20-4,10,4,19.994,4,10-4,20-4,10,4,20,4,10-4,20-4,10,4,20,4,10-4,20-4,10,4,20.006,4,10-4,20-4,10,4,20,4,10-4,20-4,10,4,20.008,4,10-4,20-4,10,4,20.006,4,10-4,20-4,10,4,20,4,10-4,20.006-4,10.007,4,20.015,4,10-4,20.006-4,10.01,4,20.022,4,10.01-4,20.02-4" transform="translate(0)" fill="none" stroke="#decdbb" stroke-width="1"/>
  </g>
</svg>
